<svg version="1.1" xmlns="http://www.w3.org/2000/svg" style="display: block;" viewBox="0 0 2048 2048" width="640" height="640">
<path transform="translate(0,0)" fill="rgb(0,0,0)" d="M 1368.73 523.66 C 1289 481.908 1335.18 371.587 1455.31 397.94 C 1458.26 398.585 1461.15 398.945 1463.64 400.78 L 1464.95 299.457 C 1452.98 296.505 1439.13 296.015 1426.81 294.531 L 1337.37 285.062 C 1336.47 275.012 1333.85 226.538 1339.48 218.5 C 1353.99 215.786 1371.81 218.863 1386.52 220.22 L 1467.22 228.778 C 1474.66 229.669 1497 228.323 1500.91 236.5 C 1503.46 241.82 1506.51 463.489 1499.55 479.164 L 1496.95 485.326 C 1475.5 532.595 1412.45 544.114 1368.73 523.66 z"/>
<path transform="translate(0,0)" fill="rgb(0,0,0)" d="M 1106.56 563.025 C 958.598 565.111 926.692 287.398 1097.72 277.433 C 1222.27 273.971 1255.61 426.802 1182.68 516.026 C 1162.35 540.897 1139.2 559.653 1106.56 563.025 z"/>
<path transform="translate(0,0)" fill="rgb(0,0,0)" d="M 1175.84 620.446 C 1149.13 658.654 1089.9 672.362 1049.42 648.016 C 1025.66 633.726 997.376 586.876 1017.05 563.5 C 1021.6 563.435 1027.87 570.271 1031.29 573.141 C 1064.09 600.641 1118.38 606.442 1154.93 582.973 C 1163.37 577.556 1170.83 570.408 1178.82 564.313 C 1192.86 581.607 1186.74 602.875 1175.84 620.446 z"/>
<path transform="translate(0,0)" fill="rgb(0,0,0)" d="M 1198.75 892.037 L 1033.24 901.549 C 1022.71 903.37 1010.87 902.26 1000.15 902.542 L 927.046 905.82 L 921.307 822.721 C 920.533 811.904 922.33 771.182 897.613 782.874 C 872.154 794.918 853.057 870.017 823.844 879.222 C 814.913 882.036 764.012 880.777 756.948 876.707 C 721.077 856.037 754.906 818.931 770.002 788.739 C 831.361 666.025 856.08 644.514 989.326 639.789 C 1003.86 638.399 999.274 646.911 1013.34 660.152 C 1059.46 703.557 1129.89 706.675 1178.22 664.935 C 1186.88 657.46 1194.63 648.597 1202.39 640.201 C 1309.55 646.42 1329.81 707.142 1361.03 797.748 C 1369.02 820.937 1380.05 845.863 1382.04 870.35 C 1358.89 879.536 1335.37 882.64 1314.7 897.562 C 1308.97 901.695 1302.73 907.662 1295.5 908.224 C 1274.64 902.778 1270.9 891.929 1270.79 874.618 L 1270.56 825.975 C 1270.5 817.511 1271.33 807.71 1269.44 799.5 C 1266 784.605 1245.71 785.382 1237.73 795.771 C 1233.62 801.12 1237.15 820.263 1237.33 827.5 L 1238.79 889.209 C 1235.19 890.619 1229.93 890.316 1226.04 890.536 L 1198.75 892.037 z"/>
<path transform="translate(0,0)" fill="rgb(0,0,0)" d="M 1282.5 1604.23 L 306.284 1604.47 C 296.888 1604.54 286.408 1605.57 277.227 1603.7 C 271.364 1596.58 271.399 1586.1 276.234 1578.5 C 282.53 1574.08 294.185 1575.85 301.688 1575.85 L 347.944 1575.88 C 349.762 1559.26 348.194 1541.02 348.196 1524.15 L 348.072 1050.23 L 318.569 1050.07 C 280.672 1049.7 295.52 1020.55 308.758 1019.19 C 316.538 1018.4 324.991 1019.01 332.824 1019.03 L 539.318 1019.05 L 539.839 887.934 C 534.038 892.088 499.584 907.766 489.423 913.157 L 428.917 943.687 C 420.473 947.752 404.202 958.002 395 956.135 C 381.118 953.318 378.45 936.107 390 928.821 C 405.316 919.16 423.745 911.88 439.901 903.523 L 548.618 849.082 L 550.075 848.997 C 577.634 847.783 569.042 897.249 569.098 913.962 L 569.589 1018.97 L 1729.2 1019.07 C 1736.79 1019.09 1744.98 1018.53 1752.51 1019.54 C 1765.75 1021.32 1778.66 1050.06 1733.75 1049.81 L 1703.41 1048.93 L 1703.35 1575.89 L 1736.76 1575.88 C 1747.17 1575.9 1771.02 1572.16 1772.1 1587.79 C 1773.32 1605.61 1759.56 1604.65 1746.45 1604.47 L 1282.5 1604.23 z M 1049.35 1098.22 C 986.783 1104.31 935.7 1129.11 895.347 1177.93 C 790.016 1305.36 867.323 1501.9 1034.94 1522.51 C 1049.94 1524.35 1065 1524.06 1080.09 1524 C 1344.03 1507.9 1353.82 1086.95 1049.35 1098.22 z"/>
<path transform="translate(0,0)" fill="rgb(0,0,0)" d="M 1410.37 978.143 L 1368.76 978.084 C 1356.86 978.053 1339.69 980.132 1329.5 972.819 C 1315.35 962.665 1317.34 942.615 1326.98 930 C 1339.63 913.444 1362.98 906.086 1382.73 903.357 C 1413.33 901.951 1470.67 899.982 1471.52 944.005 C 1472.11 974.525 1432.89 977.492 1410.37 978.143 z"/>
<path transform="translate(0,0)" fill="rgb(0,0,0)" d="M 1264.99 974.3 L 1263.49 975.055 C 1247 980.362 1224.33 978.135 1207.12 978.16 L 799.339 978.131 C 779.423 978.14 758.818 979.178 738.97 977.906 C 689.31 974.725 679.891 916.035 728.869 908.33 C 750.094 908.855 770.722 913.653 791.995 914.104 C 836.069 915.038 887.694 895.799 914.035 935.701 L 1263.33 922.171 C 1286.79 934.277 1294.15 961.251 1264.99 974.3 z"/>
<path transform="translate(0,0)" fill="rgb(0,0,0)" d="M 1072.26 1492.8 C 1056.07 1493.13 1039.45 1493.06 1023.5 1489.89 C 833.399 1452.03 835.259 1186.78 1005.39 1137.95 C 1021.89 1133.22 1038.59 1131.58 1055.64 1130.44 C 1069.79 1130.09 1085.5 1129.91 1099.5 1131.87 C 1239.9 1151.57 1295.72 1324.62 1202.5 1432.19 C 1168.5 1471.43 1122.93 1489.12 1072.26 1492.8 z M 1009.94 1203.14 C 974.767 1210.74 979.081 1240.92 979.061 1269.02 L 979.186 1363.96 C 979.369 1391.56 988.495 1429.65 1024.06 1419.53 C 1049 1412.44 1071.74 1392.79 1094.29 1380.09 L 1122.05 1364.24 C 1138.06 1355.32 1160.36 1344.96 1165.18 1325.45 C 1176.38 1280.16 1126.7 1264.99 1096.4 1247.5 L 1037.51 1212.08 C 1031.77 1208.99 1025.43 1205.57 1019 1204.2 L 1009.94 1203.14 z"/>
<path transform="translate(0,0)" fill="rgb(0,0,0)" d="M 1089.75 1346.07 C 1064.84 1360.44 1040.45 1377.44 1013.61 1387.96 L 1012.97 1387.13 C 1011.17 1375.19 1011.96 1362.5 1011.95 1350.43 L 1011.63 1256.74 C 1011.6 1250.48 1010.72 1245.9 1014.05 1240.5 C 1027.49 1241.06 1044.19 1255.13 1055.19 1262.23 L 1091.86 1284.5 C 1102.87 1290.64 1116.2 1295.15 1126.5 1302.13 C 1154.46 1321.09 1102.41 1339.02 1089.75 1346.07 z"/>
</svg>