<svg version="1.1" xmlns="http://www.w3.org/2000/svg" style="display: block;" viewBox="0 0 2048 2048" width="640" height="640">
<path transform="translate(0,0)" fill="rgb(0,0,0)" d="M 1006.29 1522.38 C 1074.65 1516.46 1129.99 1554.46 1143.49 1622.91 L 1144.38 1627.79 C 1153.83 1694.86 1106.73 1758.6 1039.46 1767.65 L 1039.4 1767.67 C 876.018 1781.16 847.964 1554.29 1006.29 1522.38 z"/>
<path transform="translate(0,0)" fill="rgb(0,0,0)" d="M 1007.51 384.457 C 1100.72 381.224 1191.94 407.848 1261.43 471.778 C 1390.35 590.395 1405.71 845.486 1258.5 956.09 C 1151.74 1036.3 1087.96 1058.85 1087.78 1201.41 L 1089.15 1406.01 L 927.148 1406 L 927.06 1133.65 C 927.046 1098.54 927.305 1078.09 936.89 1043.77 C 977.825 923.45 1070.32 901.236 1141.01 820.516 C 1197.36 756.168 1187.93 651.611 1122.96 596.688 C 1033.85 521.353 889.783 574.718 870.5 688.079 C 865.757 715.962 867.149 744.507 867.458 772.67 C 867.49 775.644 868.733 787.517 867.189 789.336 L 675.703 789.221 C 675.706 759.792 675.934 730.263 679.363 700.986 C 700.702 518.81 818.112 389.815 1007.51 384.457 z"/>
</svg>