<svg version="1.1" xmlns="http://www.w3.org/2000/svg" style="display: block;" viewBox="0 0 2048 2048" width="640" height="640">
<defs>
	<linearGradient id="Gradient1" gradientUnits="userSpaceOnUse" x1="890.189" y1="301.575" x2="885.634" y2="318.904">
		<stop class="stop0" offset="0" stop-opacity="1" stop-color="rgb(127,124,125)"/>
		<stop class="stop1" offset="1" stop-opacity="1" stop-color="rgb(150,148,149)"/>
	</linearGradient>
	<linearGradient id="Gradient2" gradientUnits="userSpaceOnUse" x1="500.479" y1="711.406" x2="450.381" y2="770.475">
		<stop class="stop0" offset="0" stop-opacity="1" stop-color="rgb(117,117,117)"/>
		<stop class="stop1" offset="1" stop-opacity="1" stop-color="rgb(146,144,145)"/>
	</linearGradient>
	<linearGradient id="Gradient3" gradientUnits="userSpaceOnUse" x1="896.233" y1="432.457" x2="878.669" y2="485.839">
		<stop class="stop0" offset="0" stop-opacity="1" stop-color="rgb(9,9,8)"/>
		<stop class="stop1" offset="1" stop-opacity="1" stop-color="rgb(39,40,41)"/>
	</linearGradient>
	<linearGradient id="Gradient4" gradientUnits="userSpaceOnUse" x1="1510.08" y1="403.198" x2="1520.11" y2="398.201">
		<stop class="stop0" offset="0" stop-opacity="1" stop-color="rgb(20,21,21)"/>
		<stop class="stop1" offset="1" stop-opacity="1" stop-color="rgb(47,46,46)"/>
	</linearGradient>
	<linearGradient id="Gradient5" gradientUnits="userSpaceOnUse" x1="1386.75" y1="428.633" x2="1441.04" y2="440.323">
		<stop class="stop0" offset="0" stop-opacity="1" stop-color="rgb(88,86,87)"/>
		<stop class="stop1" offset="1" stop-opacity="1" stop-color="rgb(107,109,108)"/>
	</linearGradient>
	<linearGradient id="Gradient6" gradientUnits="userSpaceOnUse" x1="685.383" y1="525.171" x2="750.387" y2="541.732">
		<stop class="stop0" offset="0" stop-opacity="1" stop-color="rgb(30,27,28)"/>
		<stop class="stop1" offset="1" stop-opacity="1" stop-color="rgb(101,101,101)"/>
	</linearGradient>
	<linearGradient id="Gradient7" gradientUnits="userSpaceOnUse" x1="702.44" y1="382.507" x2="642.607" y2="379.545">
		<stop class="stop0" offset="0" stop-opacity="1" stop-color="rgb(126,125,125)"/>
		<stop class="stop1" offset="1" stop-opacity="1" stop-color="rgb(170,169,169)"/>
	</linearGradient>
	<linearGradient id="Gradient8" gradientUnits="userSpaceOnUse" x1="798.608" y1="388.151" x2="762.392" y2="354.849">
		<stop class="stop0" offset="0" stop-opacity="1" stop-color="rgb(0,0,0)"/>
		<stop class="stop1" offset="1" stop-opacity="1" stop-color="rgb(44,43,43)"/>
	</linearGradient>
	<linearGradient id="Gradient9" gradientUnits="userSpaceOnUse" x1="559.389" y1="402.08" x2="559.612" y2="414.972">
		<stop class="stop0" offset="0" stop-opacity="1" stop-color="rgb(134,132,131)"/>
		<stop class="stop1" offset="1" stop-opacity="1" stop-color="rgb(156,156,158)"/>
	</linearGradient>
	<linearGradient id="Gradient10" gradientUnits="userSpaceOnUse" x1="1162.75" y1="507.815" x2="1162.27" y2="553.185">
		<stop class="stop0" offset="0" stop-opacity="1" stop-color="rgb(79,77,79)"/>
		<stop class="stop1" offset="1" stop-opacity="1" stop-color="rgb(119,120,119)"/>
	</linearGradient>
	<linearGradient id="Gradient11" gradientUnits="userSpaceOnUse" x1="501.425" y1="443.877" x2="610.34" y2="525.896">
		<stop class="stop0" offset="0" stop-opacity="1" stop-color="rgb(190,189,188)"/>
		<stop class="stop1" offset="1" stop-opacity="1" stop-color="rgb(230,229,229)"/>
	</linearGradient>
	<linearGradient id="Gradient12" gradientUnits="userSpaceOnUse" x1="813.407" y1="586.819" x2="797.394" y2="594.782">
		<stop class="stop0" offset="0" stop-opacity="1" stop-color="rgb(122,121,122)"/>
		<stop class="stop1" offset="1" stop-opacity="1" stop-color="rgb(151,149,147)"/>
	</linearGradient>
	<linearGradient id="Gradient13" gradientUnits="userSpaceOnUse" x1="523.404" y1="1161.32" x2="544.699" y2="1134.19">
		<stop class="stop0" offset="0" stop-opacity="1" stop-color="rgb(135,134,134)"/>
		<stop class="stop1" offset="1" stop-opacity="1" stop-color="rgb(170,169,168)"/>
	</linearGradient>
	<linearGradient id="Gradient14" gradientUnits="userSpaceOnUse" x1="536.228" y1="1657.47" x2="549.607" y2="1628.09">
		<stop class="stop0" offset="0" stop-opacity="1" stop-color="rgb(32,32,32)"/>
		<stop class="stop1" offset="1" stop-opacity="1" stop-color="rgb(82,82,82)"/>
	</linearGradient>
	<linearGradient id="Gradient15" gradientUnits="userSpaceOnUse" x1="947.586" y1="1689.36" x2="958.352" y2="1660.08">
		<stop class="stop0" offset="0" stop-opacity="1" stop-color="rgb(101,92,87)"/>
		<stop class="stop1" offset="1" stop-opacity="1" stop-color="rgb(115,115,115)"/>
	</linearGradient>
	<linearGradient id="Gradient16" gradientUnits="userSpaceOnUse" x1="1398.38" y1="584.019" x2="1428.62" y2="584.981">
		<stop class="stop0" offset="0" stop-opacity="1" stop-color="rgb(59,56,56)"/>
		<stop class="stop1" offset="1" stop-opacity="1" stop-color="rgb(86,87,88)"/>
	</linearGradient>
	<linearGradient id="Gradient17" gradientUnits="userSpaceOnUse" x1="599.886" y1="1436.16" x2="631.692" y2="1426.94">
		<stop class="stop0" offset="0" stop-opacity="1" stop-color="rgb(49,48,49)"/>
		<stop class="stop1" offset="1" stop-opacity="1" stop-color="rgb(75,74,73)"/>
	</linearGradient>
	<linearGradient id="Gradient18" gradientUnits="userSpaceOnUse" x1="993.963" y1="1557.44" x2="1001.04" y2="1572.56">
		<stop class="stop0" offset="0" stop-opacity="1" stop-color="rgb(164,163,161)"/>
		<stop class="stop1" offset="1" stop-opacity="1" stop-color="rgb(211,211,210)"/>
	</linearGradient>
	<linearGradient id="Gradient19" gradientUnits="userSpaceOnUse" x1="522.595" y1="1017.71" x2="574.897" y2="1002.54">
		<stop class="stop0" offset="0" stop-opacity="1" stop-color="rgb(130,128,128)"/>
		<stop class="stop1" offset="1" stop-opacity="1" stop-color="rgb(169,168,168)"/>
	</linearGradient>
	<linearGradient id="Gradient20" gradientUnits="userSpaceOnUse" x1="556.977" y1="1165.27" x2="536.61" y2="1238.61">
		<stop class="stop0" offset="0" stop-opacity="1" stop-color="rgb(160,160,159)"/>
		<stop class="stop1" offset="1" stop-opacity="1" stop-color="rgb(202,200,200)"/>
	</linearGradient>
	<linearGradient id="Gradient21" gradientUnits="userSpaceOnUse" x1="933.724" y1="576.294" x2="914.454" y2="652.006">
		<stop class="stop0" offset="0" stop-opacity="1" stop-color="rgb(201,198,198)"/>
		<stop class="stop1" offset="1" stop-opacity="1" stop-color="rgb(243,244,243)"/>
	</linearGradient>
	<linearGradient id="Gradient22" gradientUnits="userSpaceOnUse" x1="519.633" y1="1312.88" x2="557.743" y2="1295.26">
		<stop class="stop0" offset="0" stop-opacity="1" stop-color="rgb(173,171,171)"/>
		<stop class="stop1" offset="1" stop-opacity="1" stop-color="rgb(215,216,213)"/>
	</linearGradient>
	<linearGradient id="Gradient23" gradientUnits="userSpaceOnUse" x1="577.982" y1="1085.37" x2="582.347" y2="1092.07">
		<stop class="stop0" offset="0" stop-opacity="1" stop-color="rgb(131,129,128)"/>
		<stop class="stop1" offset="1" stop-opacity="1" stop-color="rgb(163,162,162)"/>
	</linearGradient>
	<linearGradient id="Gradient24" gradientUnits="userSpaceOnUse" x1="1065.53" y1="599.654" x2="1080.93" y2="634.14">
		<stop class="stop0" offset="0" stop-opacity="1" stop-color="rgb(164,162,162)"/>
		<stop class="stop1" offset="1" stop-opacity="1" stop-color="rgb(206,205,201)"/>
	</linearGradient>
	<linearGradient id="Gradient25" gradientUnits="userSpaceOnUse" x1="610.386" y1="940.96" x2="602.08" y2="905.329">
		<stop class="stop0" offset="0" stop-opacity="1" stop-color="rgb(161,160,160)"/>
		<stop class="stop1" offset="1" stop-opacity="1" stop-color="rgb(233,232,232)"/>
	</linearGradient>
	<linearGradient id="Gradient26" gradientUnits="userSpaceOnUse" x1="1029.62" y1="1685.72" x2="1064.73" y2="1545.86">
		<stop class="stop0" offset="0" stop-opacity="1" stop-color="rgb(117,116,109)"/>
		<stop class="stop1" offset="1" stop-opacity="1" stop-color="rgb(238,237,241)"/>
	</linearGradient>
	<linearGradient id="Gradient27" gradientUnits="userSpaceOnUse" x1="916.584" y1="628.835" x2="830.416" y2="735.165">
		<stop class="stop0" offset="0" stop-opacity="1" stop-color="rgb(169,170,164)"/>
		<stop class="stop1" offset="1" stop-opacity="1" stop-color="rgb(195,192,194)"/>
	</linearGradient>
	<linearGradient id="Gradient28" gradientUnits="userSpaceOnUse" x1="869.439" y1="562.884" x2="824.262" y2="699.016">
		<stop class="stop0" offset="0" stop-opacity="1" stop-color="rgb(192,190,191)"/>
		<stop class="stop1" offset="1" stop-opacity="1" stop-color="rgb(227,227,223)"/>
	</linearGradient>
	<linearGradient id="Gradient29" gradientUnits="userSpaceOnUse" x1="1154.45" y1="1638.99" x2="1138.18" y2="1584.12">
		<stop class="stop0" offset="0" stop-opacity="1" stop-color="rgb(145,143,126)"/>
		<stop class="stop1" offset="1" stop-opacity="1" stop-color="rgb(184,182,193)"/>
	</linearGradient>
	<linearGradient id="Gradient30" gradientUnits="userSpaceOnUse" x1="567.592" y1="761.195" x2="536.899" y2="722.524">
		<stop class="stop0" offset="0" stop-opacity="1" stop-color="rgb(192,191,189)"/>
		<stop class="stop1" offset="1" stop-opacity="1" stop-color="rgb(255,255,255)"/>
	</linearGradient>
	<linearGradient id="Gradient31" gradientUnits="userSpaceOnUse" x1="1558.22" y1="609.934" x2="1528.04" y2="574.707">
		<stop class="stop0" offset="0" stop-opacity="1" stop-color="rgb(213,212,212)"/>
		<stop class="stop1" offset="1" stop-opacity="1" stop-color="rgb(255,255,255)"/>
	</linearGradient>
	<linearGradient id="Gradient32" gradientUnits="userSpaceOnUse" x1="1203.52" y1="1214.49" x2="1176.48" y2="1218.51">
		<stop class="stop0" offset="0" stop-opacity="1" stop-color="rgb(120,120,121)"/>
		<stop class="stop1" offset="1" stop-opacity="1" stop-color="rgb(143,141,142)"/>
	</linearGradient>
	<linearGradient id="Gradient33" gradientUnits="userSpaceOnUse" x1="792.316" y1="1259.25" x2="752.798" y2="1277">
		<stop class="stop0" offset="0" stop-opacity="1" stop-color="rgb(163,162,163)"/>
		<stop class="stop1" offset="1" stop-opacity="1" stop-color="rgb(208,207,209)"/>
	</linearGradient>
	<linearGradient id="Gradient34" gradientUnits="userSpaceOnUse" x1="1238.68" y1="1242.29" x2="1202.32" y2="1240.71">
		<stop class="stop0" offset="0" stop-opacity="1" stop-color="rgb(121,120,123)"/>
		<stop class="stop1" offset="1" stop-opacity="1" stop-color="rgb(143,142,141)"/>
	</linearGradient>
	<linearGradient id="Gradient35" gradientUnits="userSpaceOnUse" x1="894.597" y1="1331.29" x2="903.067" y2="1346.49">
		<stop class="stop0" offset="0" stop-opacity="1" stop-color="rgb(152,151,150)"/>
		<stop class="stop1" offset="1" stop-opacity="1" stop-color="rgb(190,188,189)"/>
	</linearGradient>
	<linearGradient id="Gradient36" gradientUnits="userSpaceOnUse" x1="902.833" y1="1350.9" x2="925.093" y2="1330.17">
		<stop class="stop0" offset="0" stop-opacity="1" stop-color="rgb(47,47,47)"/>
		<stop class="stop1" offset="1" stop-opacity="1" stop-color="rgb(86,85,85)"/>
	</linearGradient>
</defs>
<path transform="translate(0,0)" fill="rgb(154,153,153)" d="M 1539.93 412.036 C 1546.39 407.973 1544.46 405.955 1552.63 410.386 C 1550.02 413.124 1547.73 415.067 1547.05 418.896 L 1543.99 419.899 C 1541.8 417.85 1539.7 415.86 1537.8 413.532 L 1539.93 412.036 z"/>
<path transform="translate(0,0)" fill="rgb(128,126,126)" d="M 1552.63 410.386 C 1556.43 413.418 1559.55 416.181 1562.55 420.056 L 1557.82 430.887 L 1547.05 418.896 C 1547.73 415.067 1550.02 413.124 1552.63 410.386 z"/>
<path transform="translate(0,0)" fill="rgb(154,153,153)" d="M 904.698 333.109 C 915.213 335.965 939.804 328.648 950.94 327.236 C 952.988 329.545 953.339 329.658 956.33 330.495 L 911.676 337.416 L 913 336 C 930.037 332.395 910.818 336.876 904.698 333.109 z"/>
<path transform="translate(0,0)" fill="rgb(128,126,126)" d="M 950.94 327.236 C 958.64 325.209 965.738 326.778 973.514 326.846 L 1018.41 326.891 C 1017.76 327.611 1016.01 329.344 1015.23 329.581 C 1004.32 328.212 991.86 329.899 980.658 329.772 L 956.33 329.647 C 953.339 329.658 952.988 329.545 950.94 327.236 z"/>
<path transform="translate(0,0)" fill="url(#Gradient1)" d="M 881.447 326.837 C 883.022 321.488 884.349 316.319 885.093 310.786 C 889.99 274.409 893.385 316.455 890.846 326.865 L 890.491 326.914 C 886.882 327.649 885.023 328.145 881.447 326.837 z"/>
<path transform="translate(0,0)" fill="rgb(87,86,87)" d="M 1562.55 420.056 C 1567.03 426.101 1574.61 436.386 1574.12 444.363 L 1574.03 446.025 L 1573.87 446.546 C 1566.45 444.366 1557.47 446.163 1549.69 445.856 C 1552.89 445.633 1556.34 445.718 1559.34 444.5 L 1557.82 430.887 L 1562.55 420.056 z"/>
<path transform="translate(0,0)" fill="rgb(197,196,194)" d="M 1547.05 418.896 L 1557.82 430.887 L 1559.34 444.5 C 1556.34 445.718 1552.89 445.633 1549.69 445.856 L 1530.2 446.031 C 1533.31 437.824 1536.95 425.367 1543.99 419.899 L 1547.05 418.896 z"/>
<path transform="translate(0,0)" fill="rgb(0,0,0)" d="M 1018.41 327.059 C 1058.29 320.89 1107.98 320.97 1148.69 323.488 L 1280.4 329.107 C 1349.47 328.609 1456.15 295.329 1487.39 376.785 C 1492.46 390.002 1487.9 387.064 1502.95 389.157 C 1510.11 390.076 1514.91 392.286 1520.5 396.773 L 1524.47 399.934 C 1528.51 402.339 1546.34 407.287 1537.97 406.097 L 1532.49 405.5 C 1531.77 411.511 1534.62 411.538 1539.93 412.036 L 1537.8 413.532 C 1539.7 415.86 1541.8 417.85 1543.99 419.899 C 1536.95 425.367 1533.31 437.824 1530.2 446.043 L 1549.69 446.03 C 1557.47 446.163 1566.45 444.366 1573.87 446.546 L 1574.03 446.025 C 1601.61 445.056 1648.43 499.281 1652.27 527.093 L 1652.45 528.5 C 1652.83 531.237 1652.22 544.151 1653.3 544.484 L 1657.85 545.895 C 1683.66 553.969 1703.79 566.505 1718.7 589.606 C 1748.58 635.895 1759.45 756.859 1760.97 810.905 L 1766.4 1028.07 C 1767.94 1051.28 1770 1074.36 1769.39 1097.68 L 1760.29 1243.88 C 1759.35 1257.98 1757.09 1271.83 1756.89 1285.96 L 1756 1433.18 C 1756.01 1479.07 1759.2 1527.55 1748.87 1572.5 C 1724.41 1679.03 1568.16 1705.1 1473.17 1697.27 C 1455.45 1695.81 1437.83 1692.82 1420 1692.15 L 1264.01 1692.04 L 972.488 1705.44 L 695.812 1714.05 L 594.079 1712.49 C 507.596 1708.38 489.008 1675.96 484.529 1588.95 C 483.998 1578.64 484.393 1568.18 482.907 1557.95 L 454.415 1563.43 C 368.469 1582.86 371.141 1560.25 377.345 1486.59 L 378.414 1457.48 C 353.437 1463.17 311.176 1471.6 294.284 1445.52 C 277.013 1418.85 288.306 1384.39 292.009 1355.5 L 303.291 1256 C 306.82 1228.1 311.958 1200.35 312.199 1172.12 L 311.909 1116.42 C 309.059 1062.69 307.06 1029 312.853 976 L 327.5 862.087 C 330.85 831.507 329.578 801.16 330.485 770.5 C 331.31 742.609 334.978 718.255 333.328 689.5 L 330.544 554.818 C 331.342 533.51 332.751 512.598 334.216 491.344 L 337.713 458.861 C 343.27 412.828 363.755 381.718 400.514 353.304 C 434.341 327.158 472.49 333.667 512.384 331.72 L 688.614 326.651 C 708.725 326.437 729.241 323.165 749.296 326.055 L 763.396 329.104 L 863.201 328.081 L 880.266 329.094 L 881.447 326.837 C 885.023 328.145 886.882 327.649 890.491 326.914 L 890.846 326.865 L 891.284 330.77 C 894.488 332.841 903.18 331.17 904.698 333.109 C 910.818 336.876 930.037 332.395 913 336 L 911.676 337.416 L 956.33 330.495 L 980.658 329.487 C 991.86 329.899 1004.32 328.212 1015.23 329.581 C 1016.01 329.344 1017.76 327.611 1018.41 327.059 z M 1459.08 559.066 C 1452.89 558.952 1445.88 558.456 1439.78 559.184 C 1422.1 565.336 1377.05 561.34 1354.33 565.994 L 1353.51 565.445 C 1348.07 565.469 1339.96 563.837 1335.04 564.533 C 1311.91 562.644 1275.53 562.3 1252.63 565.994 C 1244.5 563.967 1232.32 565.284 1223.84 565.891 L 1176.53 565.795 C 1165.04 565.817 1153.52 565.452 1142.11 567.559 L 1126.27 566.778 L 1080.63 566.157 C 1060.37 566.431 1056.96 568.89 1039.54 572.172 C 1023.89 575.121 991.151 570.612 979.275 576.254 L 946.789 576.821 L 929.362 576.855 L 908.212 576.795 L 867.835 576.828 C 853.588 576.889 839.375 576.797 826.1 582.645 C 817 581.716 804.707 580.914 795.83 583.269 L 754.663 583.505 C 745.056 583.878 735.579 585.231 725.922 585.353 L 664.383 585.566 C 642.332 585.635 621.246 585.567 599.878 591.993 C 535.758 611.276 525.509 667.001 525.906 723.468 L 525.958 732.585 L 523.406 794.248 L 522.813 840.168 L 522.954 853.928 L 522.852 875.574 C 521.563 890.954 520.315 920.992 522.943 936.147 L 523.117 953.793 L 524.012 954.457 C 527.399 955.863 530.93 956.678 533.413 959.507 L 523.898 968.742 L 523.179 969.408 L 522.999 1029.77 L 523.047 1076.91 L 523.002 1085.05 L 522.893 1120.67 L 523.001 1129.65 L 522.874 1136.56 C 521.402 1146.31 521.458 1157.49 520.938 1167.37 C 518.332 1176.42 518.766 1186.24 518.563 1195.59 L 518.088 1229.8 L 518.128 1238.07 L 519.159 1292.58 L 520.018 1299.07 C 518.026 1304.9 518.95 1314.17 519.8 1320.3 C 524.222 1321.1 525.979 1321.98 529.121 1325.26 L 520.668 1334.85 L 519.775 1350.35 L 518.296 1360.87 C 520.189 1373.11 518.405 1387.41 518.844 1399.88 L 518.139 1414.44 L 517.889 1464.09 L 518.138 1510.39 L 518.12 1516.79 L 518.898 1535.31 L 518.342 1535.81 L 518.397 1580.93 C 516.598 1602.28 517.097 1634.84 527.718 1653.73 C 530.201 1655.69 532.899 1657.9 533.336 1661.28 L 533.34 1662.12 C 550.05 1692.32 577.512 1694.04 609.03 1696.36 C 631.698 1698.02 757.7 1701.24 776.568 1694.81 L 794.972 1693.96 C 801.147 1696.05 810.827 1694.3 817.483 1694.19 L 872 1692.29 C 889.793 1691.29 906.483 1690.42 923.907 1686.16 C 933.019 1687.84 945.87 1686.54 955.093 1685.16 L 1026.37 1680.86 C 1028.81 1680.95 1032.52 1681.52 1034.79 1680.61 C 1051.38 1680.7 1137.66 1683 1148.53 1676.84 L 1219.92 1628.11 C 1229.62 1622.02 1300.13 1581.54 1304.33 1582.5 C 1274.18 1600.49 1243.48 1617.18 1214.5 1637.07 L 1184.33 1658.81 C 1175.87 1665.28 1168.12 1672 1158.58 1676.81 L 1354.61 1674.15 L 1428.76 1678.39 C 1445.81 1680.06 1462.88 1682.88 1480 1683.73 C 1536.86 1686.56 1601.61 1664.3 1651.14 1638.15 C 1699.31 1612.71 1728.04 1582 1729.49 1523.5 L 1729.09 1370.48 L 1729.6 1349.34 L 1740.68 1225.79 L 1744.42 1207.75 C 1748.14 1183.5 1766.38 1067.96 1748 1049.07 L 1745.04 1049.86 L 1741.17 1048.31 L 1746.91 1046.71 C 1748.77 1043.68 1747.2 1038.42 1746.76 1034.84 L 1742.99 1004.83 L 1739.96 980.473 C 1743.22 973.415 1739.67 927.652 1739.82 917.297 L 1739.56 871.236 C 1738.67 853.991 1735.48 836.946 1733.64 819.707 L 1725.24 726.318 C 1723.92 721.472 1723.88 716.056 1723.46 711.052 L 1720.7 690.59 L 1719.42 680.379 L 1716.48 655.613 L 1713.59 633.244 L 1711.08 618.5 C 1707.49 601.103 1700.02 586.366 1684.78 576.443 L 1679.24 572.559 C 1660.08 558.732 1643.87 559.571 1621.78 558.871 L 1613.69 558.272 L 1555.22 557.841 L 1483.53 558.018 C 1476.38 558.051 1465.87 559.577 1459.08 559.066 z M 491.53 928.131 L 454.732 964.367 C 428.879 992.223 441.369 1014.89 436.877 1048.21 C 436.144 1053.65 432.708 1065.4 434.59 1070.38 L 435.825 1068.5 C 438.038 1058.81 438.096 1038.9 442.732 1031.83 C 449.141 1022.05 492.585 967.868 493.763 961.35 C 494.172 959.085 493.415 955.05 493.276 952.601 L 491.53 928.131 z M 484.419 1143.5 L 460.926 1167.53 C 449.686 1178.88 446.69 1182.02 444.943 1198.09 L 441.026 1232.16 C 439.798 1241.64 437.668 1251 436.819 1260.52 L 437.378 1259.16 C 449.386 1230.26 475.171 1207.79 482.391 1176.29 C 484.778 1165.88 484.002 1155.17 485.278 1144.62 L 484.419 1143.5 z M 401.932 1065.53 C 379.529 1086.09 343.701 1114.56 352.324 1149.29 L 353.5 1149.06 L 385.627 1118.35 C 391.031 1113.43 403.033 1106.51 402.825 1098.42 L 401.932 1065.53 z M 400.892 823.537 L 380.183 844.377 C 372.079 852.629 364.049 859.5 362.165 871.5 L 364.358 875.573 C 362.345 877.971 362.014 882.052 361.439 885.085 L 357.005 907.5 L 357.533 909.623 C 380.843 891.64 393.911 887.863 397.717 858.582 L 400.892 823.537 z M 400.916 756.5 C 374.846 775.987 367.644 806.778 362.979 837 L 365.722 835.5 L 391.839 804.859 C 403.761 790.553 413.232 775.412 403.407 756.046 L 400.916 756.5 z M 395.535 901.962 L 371.457 919.739 C 354.727 931.557 354.053 931.231 351.08 951.86 L 349.5 972.618 L 392.162 930.41 C 398.297 923.91 395.869 910.426 395.535 901.962 z M 446.184 905.81 C 438.932 913.411 439.119 931.382 438.16 941.528 C 448.508 934.533 458.714 927.205 467.377 918.135 L 468.75 913.75 C 465.237 910.72 458.504 912.455 455.7 907.3 C 452.536 901.482 451.641 902.501 446.184 905.81 z M 447.047 1117.18 L 443.953 1154.74 L 467.815 1129.28 C 463.34 1128.11 462.386 1124.8 458.774 1122.63 L 447.047 1117.18 z M 351.648 1194.89 L 344.814 1224.32 L 368.416 1205.85 C 364.637 1198.08 361.306 1194.12 351.648 1194.89 z M 431.948 1342.07 L 426.217 1367.99 L 442.468 1352.11 C 443.328 1349.82 444.373 1347.97 444 1345.49 L 436.658 1340.5 C 434.629 1341.37 435.437 1341.1 433.37 1341.68 L 431.948 1342.07 z"/>
<path transform="translate(0,0)" fill="rgb(154,153,153)" d="M 519.8 1320.3 C 524.222 1321.1 525.979 1321.98 529.121 1325.26 L 520.668 1334.85 L 519.8 1320.3 z"/>
<path transform="translate(0,0)" fill="rgb(154,153,153)" d="M 523.117 953.793 L 524.012 954.457 C 527.399 955.863 530.93 956.678 533.413 959.507 L 523.898 968.742 L 523.117 953.793 z"/>
<path transform="translate(0,0)" fill="rgb(54,53,53)" d="M 1169.93 498 L 1194.21 496.742 L 1185.45 507.139 C 1181.63 507.042 1177.1 507.959 1174.31 505.269 L 1176.5 499.348 L 1169.93 498 z"/>
<path transform="translate(0,0)" fill="rgb(197,196,194)" d="M 332.723 1302.5 L 333.698 1302.47 C 338.677 1302.28 341.572 1299.87 344.972 1305.26 L 326.222 1331.22 L 332.723 1302.5 z"/>
<path transform="translate(0,0)" fill="rgb(255,255,255)" d="M 1018.21 409.119 C 991.382 414.817 957.455 409.234 928.675 412.236 L 926.965 412.424 C 944.558 401.64 959.457 386.76 977.721 376.495 L 961.26 389.76 C 962.175 393.152 964.125 394.937 964.25 398.75 L 972.494 400.449 C 975.517 406.168 976.856 403.098 980.539 405.892 C 977.31 408.986 965.39 408.642 960.5 409.969 L 1018.21 409.119 z"/>
<path transform="translate(0,0)" fill="rgb(180,180,176)" d="M 446.558 1387.1 L 467.744 1366.77 C 470.897 1363.53 473.812 1359.37 477.4 1356.67 C 469.858 1393.18 447.895 1401.16 422.845 1426.28 L 425.043 1416.3 C 427.778 1402.7 436.473 1395.66 446.558 1387.1 z"/>
<path transform="translate(0,0)" fill="url(#Gradient2)" d="M 502.37 706.5 L 502.976 707 C 505.793 730.587 460.946 761.515 447.939 780.171 C 451.84 746.805 481.211 729.072 502.37 706.5 z"/>
<path transform="translate(0,0)" fill="rgb(197,196,194)" d="M 446.184 905.81 C 450.182 899.663 455.908 894.797 461.136 889.704 L 488.562 862.807 C 487.038 894.229 492.921 893.241 467.377 918.135 L 468.75 913.75 C 465.237 910.72 458.504 912.455 455.7 907.3 C 452.536 901.482 451.641 902.501 446.184 905.81 z"/>
<path transform="translate(0,0)" fill="rgb(197,196,194)" d="M 447.442 1117.18 C 454.355 1099.13 472.384 1084.31 487.173 1072.54 C 485.299 1102.51 487.943 1105.61 467.815 1129.28 C 463.34 1128.11 462.386 1124.8 458.774 1122.63 L 447.442 1117.18 z"/>
<path transform="translate(0,0)" fill="rgb(197,196,194)" d="M 405.174 584.467 L 401.792 619.172 C 401.193 625.217 371.561 652.307 365.453 659.527 C 366.84 646.299 367.192 631.348 371.01 618.664 C 377.364 609.754 396.085 594.712 405.174 584.467 z"/>
<path transform="translate(0,0)" fill="rgb(180,180,176)" d="M 476.701 1401.14 L 475.793 1426.83 C 474.763 1435.6 465.393 1440.67 459.152 1445.68 L 418.5 1475.41 L 417.297 1475.31 C 424.409 1442.73 424.537 1451.13 448.5 1429.55 C 458.42 1420.62 468.141 1411.4 476.701 1401.14 z"/>
<path transform="translate(0,0)" fill="rgb(197,196,194)" d="M 400.029 644.5 C 404.169 644.422 401.321 663.382 400.338 666.421 C 398.445 672.273 392.282 678.339 388.385 683.006 L 362.032 714.113 C 358.026 718.96 354.59 724.445 351.133 729.691 C 358.634 697.116 353.161 687.867 379.042 663.959 L 400.029 644.5 z"/>
<path transform="translate(0,0)" fill="rgb(180,180,176)" d="M 431.948 1342.07 C 436.046 1320.65 453.493 1297.33 471 1284.05 C 474.494 1281.4 476.177 1280.48 478.819 1276.6 C 479.271 1313.82 480.167 1314.09 452.934 1342.16 L 442.468 1352.11 C 443.328 1349.82 444.373 1347.97 444 1345.49 L 436.658 1340.5 C 434.629 1341.37 435.437 1341.1 433.37 1341.68 L 431.948 1342.07 z"/>
<path transform="translate(0,0)" fill="rgb(197,196,194)" d="M 1431.05 348.5 L 1434.01 348.169 C 1450.83 355.157 1459.37 364.744 1467.94 380.737 L 1425.75 381.297 L 1388.69 379.044 C 1402.6 368.994 1414.75 354.744 1431.05 348.5 z"/>
<path transform="translate(0,0)" fill="rgb(180,180,176)" d="M 351.648 1194.89 C 356.137 1185.35 363.096 1179.74 370.677 1172.73 L 393.111 1151.85 C 398.826 1146.66 405.087 1141.65 410.108 1135.79 L 409.642 1137.78 C 407.546 1147.38 411.537 1173.25 403.394 1178.88 L 400.981 1180.27 C 389.491 1187.25 379.81 1198.33 368.416 1205.85 C 364.637 1198.08 361.306 1194.12 351.648 1194.89 z"/>
<path transform="translate(0,0)" fill="rgb(197,196,194)" d="M 371.592 601.307 C 377.416 536.258 377.049 568.634 414.877 520.725 L 405.767 569.267 L 404.922 584.467 C 396.085 594.712 377.364 609.754 371.01 618.664 C 370.686 613.983 369.602 605.539 371.592 601.307 z"/>
<path transform="translate(0,0)" fill="rgb(54,53,53)" d="M 371.592 601.307 L 372.489 602.576 C 376.975 596.286 382.864 591.454 388.502 586.247 L 405.767 569.267 L 404.922 584.467 C 396.085 594.712 377.364 609.754 371.01 618.664 C 370.686 613.983 369.602 605.539 371.592 601.307 z"/>
<path transform="translate(0,0)" fill="rgb(180,180,176)" d="M 384.102 1375.78 C 383.003 1386.31 380.932 1423.91 376.667 1430.92 C 369.709 1442.36 336.882 1449.13 325.5 1441.63 C 323.822 1439.93 321.82 1436.74 321.098 1434.46 C 318.986 1427.81 366.66 1403.26 384.102 1375.78 z"/>
<path transform="translate(0,0)" fill="rgb(210,209,209)" d="M 442.226 833.542 C 445.558 791.223 446.668 782.314 492.06 760.312 C 493.521 792.544 494.236 797.908 471.631 822.639 L 450.492 844.478 L 440.978 855.328 L 442.226 833.542 z"/>
<path transform="translate(0,0)" fill="rgb(180,180,176)" d="M 393.983 1290.41 C 391.673 1316.1 395.068 1326.78 378.172 1348.09 C 359.741 1371.34 335.975 1385.59 314.935 1405.61 C 317.541 1366.34 367.948 1317.82 393.983 1290.41 z"/>
<path transform="translate(0,0)" fill="rgb(197,196,194)" d="M 479.446 1467.5 L 481.052 1467.5 C 480.572 1478.45 481.36 1494.61 477.719 1504.74 C 471.748 1521.33 432.027 1556.64 416.88 1550.5 C 398.455 1529.97 427.569 1512.37 440.123 1501.77 L 479.446 1467.5 z"/>
<path transform="translate(0,0)" fill="rgb(210,209,209)" d="M 1611.84 487.591 L 1621.23 497.177 C 1633.28 511.34 1637.59 524.354 1636.04 542.924 L 1580.25 543.664 L 1553.49 542.91 C 1558.41 539.955 1562.56 533.866 1566.92 529.781 L 1611.84 487.591 z"/>
<path transform="translate(0,0)" fill="rgb(180,180,176)" d="M 332.723 1302.5 C 338.291 1275.2 335.417 1262.15 357.242 1243.16 C 372.571 1229.83 389.034 1217.85 405.897 1206.55 C 403.276 1235.66 403.468 1237.6 384.797 1260.07 C 372.126 1275.32 359.161 1291.45 344.972 1305.26 C 341.572 1299.87 338.677 1302.28 333.698 1302.47 L 332.723 1302.5 z"/>
<path transform="translate(0,0)" fill="rgb(197,196,194)" d="M 404.554 964.022 L 404.174 978.499 C 403.84 1015.84 401.256 1021.92 374.388 1046.67 L 350.824 1069.5 L 349.758 1019.36 C 351.524 1003.61 391.758 973.729 404.554 964.022 z"/>
<path transform="translate(0,0)" fill="rgb(197,196,194)" d="M 542.516 531.128 C 551.367 529.547 533.341 545.082 529.071 550.066 L 507.331 574.885 C 489.919 594.66 470.97 612.551 450.5 629.095 L 448.329 629.498 C 445.266 611.857 446.442 592.121 447.081 574.206 C 469.359 550.079 512.215 539.018 542.516 531.128 z"/>
<path transform="translate(0,0)" fill="rgb(197,196,194)" d="M 910.479 438.804 C 923.881 426.516 975.565 433.348 993.203 435.233 C 986.473 445.857 963.196 480.494 950.088 483.464 L 945.753 483.91 C 927.79 485.495 887.639 486.6 870.427 483.802 C 878.136 477.713 900.917 448.798 910.479 438.804 z"/>
<path transform="translate(0,0)" fill="rgb(197,196,194)" d="M 1110.35 428.778 C 1112.4 428.059 1114.78 428.316 1116.88 428.328 C 1116.31 431.75 1067.36 476.568 1059.7 479.922 C 1053.56 482.613 1045.23 482.414 1038.6 482.881 L 976.064 484.553 L 967.005 483.5 L 999.191 444.159 C 1007.43 434.781 1008.99 436.121 1021 434.928 L 1110.35 428.778 z"/>
<path transform="translate(0,0)" fill="rgb(210,209,209)" d="M 863.209 483.26 L 767.098 485.736 C 781.862 471.415 791.74 452.207 807.082 437.729 C 817.098 428.278 882.913 432.685 897.662 433.158 L 899.243 434.255 C 901.734 435.151 904.301 435.364 906.916 435.632 L 910.479 438.804 C 900.917 448.798 878.136 477.713 870.427 483.802 L 863.209 483.26 z"/>
<path transform="translate(0,0)" fill="url(#Gradient3)" d="M 897.662 433.662 L 899.243 434.255 C 901.734 435.151 904.301 435.364 906.916 435.632 L 910.479 438.804 C 900.917 448.798 878.136 477.713 870.427 483.802 L 863.209 483.26 C 877.272 468.196 888.505 452.111 897.662 433.662 z"/>
<path transform="translate(0,0)" fill="rgb(210,209,209)" d="M 578.55 387.79 C 610.299 348.022 645.344 335.932 696.682 343.188 C 692.649 346.877 689.388 350.264 686.283 354.808 L 651.991 396 C 647.387 401.665 641.725 407.51 638.45 414.017 L 568.19 416.217 C 554.238 414.5 572.855 396.626 578.55 387.79 z"/>
<path transform="translate(0,0)" fill="rgb(197,196,194)" d="M 782.358 435.07 L 796.818 434.084 C 762.974 473.236 773.938 487.703 718.916 491.307 L 662.913 493.178 L 646.373 493.996 C 654.438 487.136 660.967 479.028 667.997 471.162 L 693.571 444.02 C 705.166 432.431 716.099 435.314 731.785 435.227 L 782.358 435.07 z"/>
<path transform="translate(0,0)" fill="rgb(210,209,209)" d="M 1016.97 354.342 C 1045.63 337.195 1087.91 335.953 1119.94 337.402 L 1119.16 337.934 C 1116.93 339.492 1115.14 341.061 1113.26 343.025 C 1098.78 358.15 1072.77 376.774 1053.83 386.636 L 1033.02 400.5 C 1028.19 403.76 1023.72 407.586 1018.21 409.632 L 960.5 409.969 C 965.39 408.642 977.31 408.986 980.539 405.892 C 976.856 403.098 975.517 406.168 972.494 400.449 L 964.25 398.75 C 964.125 394.937 962.175 393.152 961.26 389.76 L 977.721 376.495 C 983.149 369.06 1008.82 357.037 1016.97 354.342 z"/>
<path transform="translate(0,0)" fill="rgb(210,209,209)" d="M 1232.11 415.941 C 1233.96 415.362 1234.51 414.958 1236.11 416 L 1211.5 444.437 C 1201.26 454.809 1187.05 470.42 1173.81 477.11 C 1161.96 483.1 1095.46 480.779 1079.5 480.804 C 1077.61 481.332 1076.46 481.166 1074.69 480.5 C 1143.96 422.356 1126.81 415.451 1232.11 415.941 z"/>
<path transform="translate(0,0)" fill="rgb(255,255,255)" d="M 654.009 509.789 C 685.254 503.806 717.716 508.843 749.215 504.803 C 731.248 526.762 708.346 542.975 684.714 558.165 L 677.154 562.237 C 646.13 575.651 641.371 572.868 609.756 578.412 L 594.028 581.929 C 602.086 559.535 631.508 525.877 632.673 512.297 L 654.009 509.789 z"/>
<path transform="translate(0,0)" fill="rgb(180,180,176)" d="M 632.673 512.297 L 654.009 509.789 C 647.754 522.79 640.546 534.867 632.4 546.753 L 619.211 564.417 C 615.801 568.685 611.436 573.159 609.756 578.412 L 594.028 581.929 C 602.086 559.535 631.508 525.877 632.673 512.297 z"/>
<path transform="translate(0,0)" fill="rgb(210,209,209)" d="M 980.658 329.487 C 991.86 329.899 1004.32 328.212 1015.23 329.581 L 987.128 342.756 C 976.234 349.552 965.555 356.555 955.37 364.389 L 919.335 394.294 C 886.611 421.38 866.613 409.99 831.858 414.737 C 833.871 408.205 838.354 405.327 842.393 400.875 L 873.541 367.016 C 887.65 351.78 890.503 344.203 910.663 337.755 L 911.676 337.416 L 956.33 330.495 L 980.658 329.487 z"/>
<path transform="translate(0,0)" fill="rgb(255,255,255)" d="M 980.658 329.772 C 991.86 329.899 1004.32 328.212 1015.23 329.581 L 987.128 342.756 C 985.223 342.38 969.962 343.02 978.005 337.25 L 984.505 331.25 L 980.658 329.772 z"/>
<path transform="translate(0,0)" fill="rgb(197,196,194)" d="M 483.585 347.416 L 523.2 347.724 C 483.112 387.762 434.575 417.228 396.124 459.402 L 378.606 481.862 C 384.527 407.969 399.83 353.23 483.585 347.416 z"/>
<path transform="translate(0,0)" fill="rgb(210,209,209)" d="M 1502.95 389.157 C 1510.11 390.076 1514.91 392.286 1520.5 396.773 L 1524.47 399.934 C 1528.51 402.339 1546.34 407.287 1537.97 406.097 L 1532.49 405.5 C 1531.77 411.511 1534.62 411.538 1539.93 412.036 L 1537.8 413.532 C 1539.7 415.86 1541.8 417.85 1543.99 419.899 C 1536.95 425.367 1533.31 437.824 1530.2 446.043 L 1509.61 447.193 L 1499.73 447.994 L 1440.19 456.568 C 1421.37 459.622 1403.13 462.971 1383.97 463.048 C 1379.59 463.812 1375.45 464.448 1371 464.482 L 1430.1 406.985 L 1430.34 407.491 C 1439.3 406.268 1448.79 406.701 1457.81 406.912 C 1471.31 402.627 1486.87 400.644 1500.77 398.702 C 1503.35 395.512 1503.12 393.03 1502.95 389.157 z"/>
<path transform="translate(0,0)" fill="rgb(180,180,176)" d="M 1499.73 447.994 C 1505.38 442.323 1517.46 428.128 1522.64 424.183 C 1520 431.177 1510.22 440.994 1509.61 447.193 L 1499.73 447.994 z"/>
<path transform="translate(0,0)" fill="url(#Gradient4)" d="M 1502.95 389.157 C 1510.11 390.076 1514.91 392.286 1520.5 396.773 L 1524.47 399.934 C 1526.36 404.752 1528.43 413.1 1526.03 418.105 L 1524.43 420.862 L 1524.09 416 C 1523.26 404.133 1511.23 398.826 1500.77 398.702 C 1503.35 395.512 1503.12 393.03 1502.95 389.157 z"/>
<path transform="translate(0,0)" fill="url(#Gradient5)" d="M 1430.1 406.985 L 1430.34 407.491 C 1439.3 406.268 1448.79 406.701 1457.81 406.912 C 1437.21 411.753 1402.39 449.743 1383.97 463.093 C 1379.59 463.812 1375.45 464.448 1371 464.482 L 1430.1 406.985 z"/>
<path transform="translate(0,0)" fill="rgb(210,209,209)" d="M 881.447 326.837 C 885.023 328.145 886.882 327.649 890.491 326.914 L 890.846 326.865 L 891.284 330.77 C 894.488 332.841 903.18 331.17 904.698 333.109 C 910.818 336.876 930.037 332.395 913 336 L 911.676 337.416 L 910.663 337.755 C 890.503 344.203 887.65 351.78 873.541 367.016 L 842.393 400.875 C 838.354 405.327 833.871 408.205 831.858 414.088 L 804.703 415.065 C 779.029 420.114 747.576 420.177 721.484 418.046 C 765.151 388.7 796.009 346.911 850.078 332.329 C 854.593 331.111 859.32 330.9 863.201 328.122 L 880.266 329.094 L 881.447 326.837 z"/>
<path transform="translate(0,0)" fill="rgb(180,180,176)" d="M 881.447 326.837 C 885.023 328.145 886.882 327.649 890.491 326.914 L 890.846 326.865 L 891.284 330.77 C 894.488 332.841 903.18 331.17 904.698 333.109 C 910.818 336.876 930.037 332.395 913 336 L 911.676 337.416 L 910.663 337.755 C 890.503 344.203 887.65 351.78 873.541 367.016 L 842.393 400.875 C 838.354 405.327 833.871 408.205 831.858 414.088 L 804.703 415.065 C 806.916 410.803 811.288 407.037 814.671 403.075 L 844.5 370.862 C 856.899 358.254 872.786 345.505 880.266 329.094 L 881.447 326.837 z"/>
<path transform="translate(0,0)" fill="rgb(255,255,255)" d="M 762.003 503.648 C 776.955 496.629 799.841 497.886 815.808 497.787 L 865.542 498.232 L 861.46 503.705 L 858.649 508.416 C 854.794 514.334 849.248 519.239 844.568 524.505 L 822.254 549.723 C 817.207 554.893 807.93 560.43 804.748 566.787 C 766.998 568.462 728.148 570.416 690.491 566.298 C 685.839 566.049 681.248 564.682 677.154 562.237 L 684.714 558.165 C 708.346 542.975 731.248 526.762 749.215 504.803 C 752.691 503.581 758.229 503.922 762.003 503.648 z"/>
<path transform="translate(0,0)" fill="url(#Gradient6)" d="M 749.215 504.803 C 752.691 503.581 758.229 503.922 762.003 503.648 C 748.147 519.702 709.737 554.327 690.247 565.51 L 690.491 567.058 C 685.839 566.049 681.248 564.682 677.154 562.237 L 684.714 558.165 C 708.346 542.975 731.248 526.762 749.215 504.803 z"/>
<path transform="translate(0,0)" fill="rgb(210,209,209)" d="M 763.396 329.104 L 863.201 328.081 C 859.32 330.9 854.593 331.111 850.078 332.329 C 796.009 346.911 765.151 388.7 721.484 418.046 C 717.323 419.143 705.874 416.004 701.285 415.274 L 650.525 414.544 L 638.45 414.017 C 641.725 407.51 647.387 401.665 651.991 396 L 686.283 354.808 C 689.388 350.264 692.649 346.877 696.682 343.188 C 703.254 343.478 712.941 342.146 719.006 343.602 L 747.5 335.895 C 759.364 332.249 767.25 331.328 779.816 331.084 L 780.207 330.646 C 774.493 330.571 768.912 330.783 763.396 329.104 z"/>
<path transform="translate(0,0)" fill="url(#Gradient7)" d="M 696.682 343.188 C 703.254 343.478 712.941 342.146 719.006 343.602 L 708.39 351.032 C 685.359 369.495 670.697 393.14 650.525 414.175 L 638.45 414.017 C 641.725 407.51 647.387 401.665 651.991 396 L 686.283 354.808 C 689.388 350.264 692.649 346.877 696.682 343.188 z"/>
<path transform="translate(0,0)" fill="rgb(87,86,87)" d="M 696.682 343.188 C 703.254 343.478 712.941 342.146 719.006 343.602 L 708.39 351.032 C 703.937 349.817 701.053 349.737 696.538 350.692 L 695.019 352.05 C 693.118 353.714 691.279 354.62 689 355.669 L 686.283 354.808 C 689.388 350.264 692.649 346.877 696.682 343.188 z"/>
<path transform="translate(0,0)" fill="url(#Gradient8)" d="M 763.396 329.104 L 863.201 328.081 C 859.32 330.9 854.593 331.111 850.078 332.329 C 796.009 346.911 765.151 388.7 721.484 418.046 C 717.323 419.143 705.874 416.004 701.285 415.274 C 715.481 410.026 724.722 401.633 736.178 392.219 L 814.287 332.55 L 779.816 331.654 L 780.207 330.646 C 774.493 330.571 768.912 330.783 763.396 329.104 z"/>
<path transform="translate(0,0)" fill="rgb(255,255,255)" d="M 594.028 581.929 C 567.841 593.441 545.464 606.329 526.585 628.5 C 519.512 636.807 513.355 646.934 504.9 653.873 C 485.175 670.061 456.888 681.041 442.578 702.944 L 441.616 704.433 C 437.438 660.618 480.437 629.276 505.706 599.52 C 559.534 536.137 542.573 527.982 632.673 512.297 C 631.508 525.877 602.086 559.535 594.028 581.929 z"/>
<path transform="translate(0,0)" fill="rgb(210,209,209)" d="M 1355.73 407.111 L 1390.97 408.023 L 1430.1 407.253 L 1371 464.482 L 1321.75 470.407 C 1316.65 471.649 1310.93 471.267 1305.69 471.372 L 1293.64 472.151 L 1195.34 477.581 C 1198.31 476.729 1201.65 475.601 1203.76 473.271 L 1205.36 471.558 C 1258.12 423.913 1280.86 406.701 1355.73 407.111 z"/>
<path transform="translate(0,0)" fill="rgb(180,180,176)" d="M 1293.64 472.151 C 1298.18 467.528 1300.76 466.081 1307.37 465.322 L 1305.69 471.372 L 1293.64 472.151 z"/>
<path transform="translate(0,0)" fill="rgb(128,126,126)" d="M 1355.73 407.111 L 1390.97 408.023 C 1382.35 413.281 1376.34 421.324 1369 428.052 L 1345.26 448.647 C 1337.62 455.267 1326 461.667 1320 469.459 L 1321.75 470.407 C 1316.65 471.649 1310.93 471.267 1305.69 471.372 L 1307.37 465.322 C 1329.73 449.009 1350 428.937 1368.27 408.286 L 1355.73 407.111 z"/>
<path transform="translate(0,0)" fill="rgb(210,209,209)" d="M 1430.1 407.253 L 1371 464.482 L 1321.75 470.407 L 1320 469.459 C 1326 461.667 1337.62 455.267 1345.26 448.647 L 1369 428.052 C 1376.34 421.324 1382.35 413.281 1390.97 408.023 L 1430.1 407.253 z"/>
<path transform="translate(0,0)" fill="rgb(210,209,209)" d="M 1051.33 495.654 C 1080.55 493.701 1109.64 492.199 1138.95 493.574 C 1149.31 494.059 1160.04 498.249 1169.93 498 L 1176.5 499.348 L 1174.31 505.269 C 1166.11 522.584 1153.42 542.233 1140.21 556.458 C 1129.77 560.28 1116.02 559.454 1104.92 560.412 L 1012.97 566.084 C 1004.59 566.279 995.52 567.231 987.243 566.166 L 981.692 567.533 C 993.878 555.926 1005.76 542.336 1015.57 528.701 L 1037.99 495.034 C 1042.26 494.991 1047.22 494.433 1051.33 495.654 z"/>
<path transform="translate(0,0)" fill="rgb(87,86,87)" d="M 1037.99 495.034 C 1042.26 494.991 1047.22 494.433 1051.33 495.654 C 1033.23 503.97 1024.82 519.86 1012.99 535.104 L 987.243 567.353 L 981.692 567.533 C 993.878 555.926 1005.76 542.336 1015.57 528.701 L 1037.99 495.034 z"/>
<path transform="translate(0,0)" fill="rgb(197,196,194)" d="M 550.799 417.973 C 495.887 431.761 468.785 431.891 433.358 485.559 C 413.181 516.123 407.717 522.478 376.241 544.9 L 376.883 512.379 C 377.013 507.351 376.436 500.85 380.119 496.925 L 410.078 464.051 C 433.454 440.213 459.202 419.795 485.036 398.727 C 514.452 374.737 536.274 348.213 576.266 347.683 L 607.981 347.357 C 603.787 351.323 600.852 356.249 597.265 360.771 L 576.866 384.866 L 578.55 387.79 C 572.855 396.626 554.238 414.5 568.19 416.435 L 550.799 417.973 z"/>
<path transform="translate(0,0)" fill="url(#Gradient9)" d="M 576.866 384.866 L 578.55 387.79 C 572.855 396.626 554.238 414.5 568.19 416.435 L 550.799 417.973 L 552.318 415.316 C 558.517 404.605 568.762 394.285 576.866 384.866 z"/>
<path transform="translate(0,0)" fill="rgb(210,209,209)" d="M 1553.24 468.381 C 1581.15 467.862 1586.94 465.061 1607.85 483.926 L 1550.64 530.505 C 1546.28 533.795 1538.24 541.275 1532.81 541.299 L 1435.34 540.971 C 1430.23 539.875 1423.66 540.78 1418.36 540.816 L 1379.74 540.532 C 1391.05 532.526 1401.8 519.372 1416.53 508.576 C 1461.37 475.699 1498.95 471.793 1553.24 468.381 z"/>
<path transform="translate(0,0)" fill="rgb(210,209,209)" d="M 1371.89 335.472 C 1386.89 334.699 1402.69 334.081 1417.56 336.332 L 1385.63 364.911 C 1368.52 379.735 1344.04 373.225 1322.72 376.134 L 1097.75 411.273 L 1054.44 413.518 C 1056.81 412.395 1059.25 411.354 1061.39 409.831 C 1088.15 390.755 1145.63 364.558 1178.99 358.5 C 1205.39 353.707 1232.49 353.511 1259.08 349.833 C 1274.96 347.636 1290.14 342.856 1305.9 340.33 C 1327.42 336.881 1350.11 337.021 1371.89 335.472 z"/>
<path transform="translate(0,0)" fill="rgb(255,255,255)" d="M 970.136 497.368 L 1037.99 494.963 L 1015.57 528.701 C 1005.76 542.336 993.878 555.926 981.692 567.533 L 943.436 568.513 C 934.706 568.584 925.763 569.131 917.118 567.758 C 908.863 565.757 899.718 566.183 891.37 566.128 L 846.568 565.973 L 804.748 566.539 C 807.93 560.43 817.207 554.893 822.254 549.723 L 844.568 524.505 C 849.248 519.239 854.794 514.334 858.649 508.416 L 861.46 504.184 L 862.777 506.371 C 869.25 492.657 889.849 497.617 903.89 497.632 L 970.136 497.368 z"/>
<path transform="translate(0,0)" fill="rgb(210,209,209)" d="M 804.748 566.539 C 807.93 560.43 817.207 554.893 822.254 549.723 L 844.568 524.505 C 849.248 519.239 854.794 514.334 858.649 508.416 L 861.46 504.184 L 862.777 506.371 C 861.189 508.386 859.852 510.328 858.49 512.5 L 844.337 534.677 C 837.753 544.015 830.3 557.917 822.463 565.111 C 829.921 565.147 839.399 564.084 846.568 565.87 L 804.748 566.539 z"/>
<path transform="translate(0,0)" fill="rgb(255,255,255)" d="M 1194.21 496.742 L 1415.43 484.803 C 1399.59 493.528 1376.74 536.997 1353.09 541.731 C 1342.65 543.821 1331.27 543.987 1320.64 544.649 L 1260.79 547.866 C 1250.31 548.478 1240.26 550.962 1229.86 551.808 C 1211.14 553.33 1181.61 554.273 1162.15 554.108 L 1140.21 556.458 C 1153.42 542.233 1166.11 522.584 1174.31 505.269 C 1177.1 507.959 1181.63 507.042 1185.45 507.139 L 1194.21 496.742 z"/>
<path transform="translate(0,0)" fill="url(#Gradient10)" d="M 1174.31 505.269 C 1177.1 507.959 1181.63 507.042 1185.45 507.139 L 1161.26 541.195 C 1158.79 544.437 1151.64 549.535 1152.14 553.724 L 1162.15 554.108 L 1140.21 556.458 C 1153.42 542.233 1166.11 522.584 1174.31 505.269 z"/>
<path transform="translate(0,0)" fill="url(#Gradient11)" d="M 609.32 436.962 L 657.268 435.086 C 665.442 435.101 674.305 434.45 682.392 435.519 L 680.804 436.657 C 677.06 439.511 674.387 445.334 671.426 449.181 C 637.273 493.544 641.371 488.102 592.007 502.5 L 540.216 518.103 C 508.402 527.459 475.619 537.638 447.053 554.813 C 456.398 499.647 481.36 436.383 546.68 437.91 C 553.853 436.596 561.481 437.07 568.725 437.051 L 609.32 436.962 z"/>
<path transform="translate(0,0)" fill="rgb(154,153,153)" d="M 546.68 437.497 C 553.853 436.596 561.481 437.07 568.725 437.051 L 609.32 436.962 C 592.364 462.997 556.209 503.008 527.059 511.578 C 540.213 489.802 561.589 470.138 568.756 445.46 C 569.793 441.888 573.114 440.591 574.073 437.742 C 565.075 437.761 555.599 438.437 546.68 437.497 z"/>
<path transform="translate(0,0)" fill="rgb(255,255,255)" d="M 1459.08 559.066 C 1465.87 559.577 1476.38 558.051 1483.53 558.018 L 1555.22 557.841 L 1613.69 558.272 L 1621.78 558.871 C 1643.87 559.571 1660.08 558.732 1679.24 572.559 L 1684.78 576.443 C 1700.02 586.366 1707.49 601.103 1711.08 618.5 L 1713.59 633.244 L 1716.48 655.613 L 1719.42 680.379 L 1720.7 690.59 L 1723.46 711.052 C 1723.88 716.056 1723.92 721.472 1725.24 726.318 L 1733.64 819.707 C 1735.48 836.946 1738.67 853.991 1739.56 871.236 L 1739.82 917.297 C 1739.67 927.652 1743.22 973.415 1739.96 980.473 L 1742.99 1004.83 L 1746.76 1034.84 C 1747.2 1038.42 1748.77 1043.68 1746.91 1046.71 L 1741.17 1048.31 L 1745.04 1049.86 L 1748 1049.07 C 1766.38 1067.96 1748.14 1183.5 1744.42 1207.75 L 1740.68 1225.79 L 1729.6 1349.34 L 1729.09 1370.48 L 1729.49 1523.5 C 1728.04 1582 1699.31 1612.71 1651.14 1638.15 C 1601.61 1664.3 1536.86 1686.56 1480 1683.73 C 1462.88 1682.88 1445.81 1680.06 1428.76 1678.39 L 1354.61 1674.15 L 1158.58 1676.81 C 1168.12 1672 1175.87 1665.28 1184.33 1658.81 L 1214.5 1637.07 C 1243.48 1617.18 1274.18 1600.49 1304.33 1582.5 C 1300.13 1581.54 1229.62 1622.02 1219.92 1628.11 L 1148.53 1676.84 C 1137.66 1683 1051.38 1680.7 1034.79 1680.61 C 1032.52 1681.52 1028.81 1680.95 1026.37 1680.86 L 955.093 1685.16 C 945.87 1686.54 933.019 1687.84 923.907 1686.16 C 906.483 1690.42 889.793 1691.29 872 1692.29 L 817.483 1694.19 C 810.827 1694.3 801.147 1696.05 794.972 1693.96 L 776.568 1694.81 C 757.7 1701.24 631.698 1698.02 609.03 1696.36 C 577.512 1694.04 550.05 1692.32 533.34 1662.12 L 533.336 1661.28 C 532.899 1657.9 530.201 1655.69 527.718 1653.73 C 517.097 1634.84 516.598 1602.28 518.397 1580.93 L 518.342 1535.81 L 518.898 1535.31 L 518.12 1516.79 L 518.138 1510.39 L 517.889 1464.09 L 518.139 1414.44 L 518.844 1399.88 C 518.405 1387.41 520.189 1373.11 518.296 1360.87 L 519.775 1350.35 L 520.668 1334.85 L 529.121 1325.26 C 525.979 1321.98 524.222 1321.1 519.8 1320.3 C 518.95 1314.17 518.026 1304.9 520.018 1299.07 L 519.159 1292.58 L 518.128 1238.07 L 518.088 1229.8 L 518.563 1195.59 C 518.766 1186.24 518.332 1176.42 520.938 1167.37 C 521.458 1157.49 521.402 1146.31 522.874 1136.56 L 523.001 1129.65 L 522.893 1120.67 L 523.002 1085.05 L 523.047 1076.91 L 522.999 1029.77 L 523.179 969.408 L 523.898 968.742 L 533.413 959.507 C 530.93 956.678 527.399 955.863 524.012 954.457 L 523.117 953.793 L 522.943 936.147 C 520.315 920.992 521.563 890.954 522.852 875.574 L 522.954 853.928 L 522.813 840.168 L 523.406 794.248 L 525.958 732.585 L 525.906 723.468 C 525.509 667.001 535.758 611.276 599.878 591.993 C 621.246 585.567 642.332 585.635 664.383 585.566 L 725.922 585.353 C 735.579 585.231 745.056 583.878 754.663 583.505 L 795.83 583.269 C 804.707 580.914 817 581.716 826.1 582.645 C 839.375 576.797 853.588 576.889 867.835 576.828 L 908.212 576.795 L 929.362 576.855 L 946.789 576.821 L 979.275 576.254 C 991.151 570.612 1023.89 575.121 1039.54 572.172 C 1056.96 568.89 1060.37 566.431 1080.63 566.157 L 1126.27 566.778 L 1142.11 567.559 C 1153.52 565.452 1165.04 565.817 1176.53 565.795 L 1223.84 565.891 C 1232.32 565.284 1244.5 563.967 1252.63 565.994 C 1275.53 562.3 1311.91 562.644 1335.04 564.533 C 1339.96 563.837 1348.07 565.469 1353.51 565.445 L 1354.33 565.994 C 1377.05 561.34 1422.1 565.336 1439.78 559.184 C 1445.88 558.456 1452.89 558.952 1459.08 559.066 z M 892.23 1364.83 C 912.879 1352.51 930.697 1327.58 942.519 1307.08 C 946.765 1301.14 950.276 1295.34 953.44 1288.76 C 973.465 1239.31 972.383 1199.75 972.364 1146.81 L 972.368 1002.94 C 972.396 977.74 983.538 981.169 1009.01 967.456 C 1041.31 950.064 1072.8 932.306 1109.37 926.185 C 1141.74 928.198 1127.85 943.483 1171.9 916.795 L 1267.32 872.152 L 1268.14 917.594 L 1268.2 925.059 C 1268.33 934.252 1271.09 952.033 1265.66 959.5 L 1268.16 959.5 L 1266.31 1055.41 C 1252.62 1055.69 1238.32 1055.06 1224.72 1056.43 C 1159.29 1063.01 1112.46 1115.47 1105.64 1180.03 C 1090.32 1324.91 1302.94 1345.82 1358.04 1207.5 C 1367 1185.02 1367.92 1164.86 1367.92 1140.87 L 1368.29 773.711 C 1366.42 734.026 1315.53 747.348 1293.91 750.855 C 1251.58 757.722 1233.98 764.121 1193.78 776.763 L 1127.44 794.393 C 1114.85 797.483 1102.73 797.287 1090.19 799.586 C 1084.05 804.16 1080.06 811.113 1071.28 810.462 C 1058.53 809.516 1045.75 798.037 1039.5 816.013 C 1023.35 820.967 977.336 830.084 959.838 832.377 C 956.108 832.865 951.932 830.256 947.942 829.938 C 866.866 823.459 882.242 882.181 882.241 937.901 L 882.067 1108.91 C 881.637 1129.56 875.077 1119.19 850.439 1121.25 C 682.156 1135.31 651.425 1358.22 803.5 1380.2 C 830.599 1384.12 871.352 1384.14 892.23 1364.83 z M 584.749 1433.09 L 517.889 1464.09 L 518.138 1510.39 L 518.12 1516.79 L 518.898 1535.31 L 518.342 1535.81 L 518.397 1580.93 C 516.598 1602.28 517.097 1634.84 527.718 1653.73 C 538.257 1639.74 557.718 1626.68 572.459 1618.02 L 575.162 1620.29 C 589.048 1611.28 604.997 1602.19 620.922 1597.32 C 631.41 1606.51 642.594 1614.59 655.213 1620.57 C 658.658 1621.93 662.17 1623.63 665.81 1624.33 C 711.242 1631.25 740.014 1621.73 784.685 1613.79 L 845.401 1602.53 L 902.295 1589.07 C 916.47 1584.97 931.473 1577.6 946.025 1575.77 C 947.185 1574.08 947.269 1573.85 947.343 1572.5 C 943.583 1571.56 938.84 1572.39 934.983 1572.6 L 910 1574.62 C 858.791 1580.42 773.634 1598.61 723.736 1589.68 C 715.16 1589.16 705.942 1588.34 697.682 1585.97 C 679.769 1582.58 663.492 1572.39 650.816 1559.51 L 645.674 1554.06 C 636.575 1545.98 622.875 1533.29 629.819 1520.82 C 629.266 1515.03 629.39 1514.25 625.601 1509.94 C 615.261 1514.24 613.672 1499.05 610.663 1491.9 L 614.497 1486.85 C 614.1 1479.1 612.568 1481.37 607.145 1477.57 L 605.852 1476.64 L 601.71 1477.97 C 600.054 1472.3 599.901 1466.6 599.584 1460.75 L 598.9 1460.44 C 598.457 1449.89 599.345 1439.73 598.192 1429.18 C 595.177 1428.33 588.624 1430.75 585.963 1432.33 L 584.749 1433.09 z"/>
<path transform="translate(0,0)" fill="rgb(128,126,126)" d="M 1126.27 567.04 L 1142.11 567.559 L 1123.41 581.013 L 1123.61 579.107 C 1124.47 578.011 1124.98 577.311 1125.51 576 L 1120.34 574.548 L 1126.27 567.04 z"/>
<path transform="translate(0,0)" fill="rgb(128,126,126)" d="M 1439.78 559.614 C 1445.88 558.456 1452.89 558.952 1459.08 559.066 C 1448.53 560.883 1440.17 572.796 1433.26 573.493 C 1431.9 572.281 1430.48 571.29 1429 570.227 C 1434.72 566.396 1440.39 563.822 1446.29 560.5 L 1439.78 559.614 z"/>
<path transform="translate(0,0)" fill="rgb(128,126,126)" d="M 1268.19 925.059 L 1232.28 939.5 C 1243.7 932.92 1257.03 926.737 1267.19 918.397 L 1268.14 917.594 L 1268.19 925.059 z"/>
<path transform="translate(0,0)" fill="rgb(54,53,53)" d="M 625.601 1509.94 C 630.031 1505.39 642.25 1501.03 648.444 1499.44 L 629.819 1520.82 C 629.266 1515.03 629.39 1514.25 625.601 1509.94 z"/>
<path transform="translate(0,0)" fill="rgb(197,196,194)" d="M 573.739 988.435 C 582.05 989.672 587.095 982.611 595.258 986.556 L 579.219 995.414 C 575.735 993.137 567.732 994.916 563.413 995.291 L 573.739 988.435 z"/>
<path transform="translate(0,0)" fill="rgb(128,126,126)" d="M 1026.37 1680.86 C 1038.06 1676.86 1047.66 1669.13 1057.45 1661.84 C 1058.95 1666.42 1059.77 1667.14 1058.02 1671.6 L 1042.17 1678.36 C 1039.61 1679.33 1037 1679.33 1034.79 1680.89 C 1032.52 1681.52 1028.81 1680.95 1026.37 1680.86 z"/>
<path transform="translate(0,0)" fill="rgb(87,86,87)" d="M 1605.81 747.413 L 1607.74 759.678 C 1592.75 760.285 1575.99 770.655 1561.42 774.927 C 1572.48 764.217 1596.88 760.432 1604.77 749.019 L 1605.81 747.413 z"/>
<path transform="translate(0,0)" fill="rgb(180,180,176)" d="M 1585.67 943.63 L 1575 948.5 C 1577.79 949.057 1576.58 948.953 1579.25 948.005 L 1584 946.755 C 1585.9 946.771 1590.81 944.485 1593 943.755 L 1597.25 942.219 C 1598.76 943.135 1598.33 942.53 1598.83 943.783 L 1542 963.016 L 1540.91 960 C 1546.14 955.575 1554.02 953.777 1560.45 951.659 L 1585.67 943.63 z"/>
<path transform="translate(0,0)" fill="url(#Gradient12)" d="M 795.83 582.867 C 804.707 580.914 817 581.716 826.1 582.645 L 824.854 583.265 C 808.06 591.745 791.068 603.767 777 616.319 L 775.51 615.5 C 787.274 603.33 799.061 593.191 812.595 583.053 L 795.83 582.867 z"/>
<path transform="translate(0,0)" fill="rgb(180,180,176)" d="M 1700.22 1068.58 C 1712.75 1060.31 1726.67 1052.43 1741.17 1048.31 L 1745.04 1049.86 L 1715 1066.83 C 1712.31 1068.34 1707.89 1071.69 1705.02 1072.4 C 1700.85 1072.96 1695.48 1077 1692 1076.5 C 1695.31 1074.4 1697.83 1072.81 1699.82 1069.34 L 1700.22 1068.58 z"/>
<path transform="translate(0,0)" fill="url(#Gradient13)" d="M 522.874 1136.56 L 523.358 1154.77 C 531.655 1142.05 548.632 1131.75 562.543 1126.23 C 547.438 1138.14 533.673 1152.52 521.498 1167.37 C 521.458 1157.49 521.402 1146.31 522.874 1136.56 z"/>
<path transform="translate(0,0)" fill="url(#Gradient14)" d="M 527.718 1653.73 C 538.257 1639.74 557.718 1626.68 572.459 1618.02 L 575.162 1620.29 C 559.281 1631.36 542.324 1644.57 533.34 1662.12 L 533.336 1661.28 C 532.899 1657.9 530.201 1655.69 527.718 1653.73 z"/>
<path transform="translate(0,0)" fill="url(#Gradient15)" d="M 967.877 1663.28 L 972.577 1667.5 C 972.018 1668.95 971.472 1669.72 970.71 1671.02 L 969.774 1672.74 L 947.202 1684.41 C 949.782 1685.15 952.43 1685.1 955.093 1685.2 C 945.87 1686.54 933.019 1687.84 923.907 1686.16 C 939.499 1679.93 953.817 1672.48 967.877 1663.28 z"/>
<path transform="translate(0,0)" fill="rgb(197,196,194)" d="M 523.047 1076.91 L 523.796 1076.63 C 525.514 1075.8 526.592 1074.31 528.165 1073.26 L 552.04 1058.54 C 560.945 1053.26 571.089 1049.18 580.5 1044.83 L 580.958 1045.77 C 564.26 1056.59 541.028 1078.45 523.069 1085.05 L 523.047 1076.91 z"/>
<path transform="translate(0,0)" fill="rgb(154,153,153)" d="M 525.906 723.468 C 558.697 707.58 561.292 711.084 577.979 680 C 585.979 665.098 595.63 651.254 609 640.742 L 610.302 641.5 C 594.18 654.954 585.705 670.225 578.216 689.6 C 577.426 692.972 576.168 694.396 573.768 696.841 L 544.257 719.219 C 537.898 723.678 531.662 727.224 525.958 732.585 L 525.906 723.468 z"/>
<path transform="translate(0,0)" fill="url(#Gradient16)" d="M 1429 570.227 C 1430.48 571.29 1431.9 572.281 1433.26 573.493 L 1365.34 623.524 L 1383.46 606.215 C 1397.92 593.204 1412.92 581.198 1429 570.227 z"/>
<path transform="translate(0,0)" fill="url(#Gradient17)" d="M 598.192 1429.18 L 599.428 1429.63 C 608.734 1432.6 625.474 1420.79 634.069 1427.5 C 633.101 1437.75 608.556 1440.01 599.95 1442.99 L 599.584 1460.75 L 598.9 1460.44 C 598.457 1449.89 599.345 1439.73 598.192 1429.18 z"/>
<path transform="translate(0,0)" fill="rgb(87,86,87)" d="M 605.852 1476.64 C 630.42 1468.95 658.983 1462 684.945 1463.16 C 658.834 1472.55 642.863 1467.64 614.497 1486.85 C 614.1 1479.1 612.568 1481.37 607.145 1477.57 L 605.852 1476.64 z"/>
<path transform="translate(0,0)" fill="url(#Gradient18)" d="M 947.343 1571.81 C 951.754 1570.09 957.357 1570.11 962.052 1569.57 L 1043.39 1554.6 C 1016.12 1570.31 977.569 1574.75 946.025 1575.77 C 947.185 1574.08 947.269 1573.85 947.343 1571.81 z"/>
<path transform="translate(0,0)" fill="url(#Gradient19)" d="M 522.99 1029.77 L 523.179 969.408 L 523.66 999.992 C 523.665 1004.86 522.671 1012.12 524.058 1016.56 L 563.413 995.291 C 567.732 994.916 575.735 993.137 579.219 995.414 L 548.334 1013.94 C 540.331 1019.12 531.684 1025.99 522.99 1029.77 z"/>
<path transform="translate(0,0)" fill="rgb(210,209,209)" d="M 1549.18 654.179 C 1556.13 658.498 1562.38 662.977 1568.43 668.486 C 1562.96 670.232 1557.93 672.985 1552.5 674.761 C 1539.62 678.97 1496.53 687.156 1534.04 666.658 C 1540.04 663.381 1544.58 659.145 1549.18 654.179 z"/>
<path transform="translate(0,0)" fill="rgb(180,180,176)" d="M 1445.36 624.626 C 1450.17 620.178 1457.74 617.075 1463.8 613.162 L 1487.57 598.273 L 1490.06 600 C 1492.38 600.464 1493.22 600.995 1494.52 602.968 L 1495.49 604.5 C 1497.23 603.923 1496.7 604.264 1498.03 603.265 L 1500 601.755 C 1501.44 600.969 1501.94 601.065 1503.39 599.875 L 1504.75 598.75 C 1507.1 597.335 1507.39 597.131 1509.25 595.005 L 1513.5 593 C 1516.37 589.753 1519.71 588.04 1522.38 584.78 L 1523.01 584.005 C 1525.18 583.998 1525.02 583.493 1526.49 582.04 L 1527.66 582.784 C 1511.98 596.026 1474.16 616.751 1466 624.961 C 1460.11 626.255 1452.44 625.083 1446.2 625.591 L 1445.36 624.626 z"/>
<path transform="translate(0,0)" fill="rgb(154,153,153)" d="M 522.813 840.168 C 535.55 837.629 576.638 860.522 615.122 855.352 C 616.756 855.133 616.058 855.207 618.157 855.329 C 610.784 856.988 600.08 858.812 593.488 862.253 L 575.346 859.879 C 556.535 855.65 542.01 851.39 522.778 853.928 L 522.813 840.168 z"/>
<path transform="translate(0,0)" fill="url(#Gradient20)" d="M 518.088 1229.8 L 519.213 1229.4 C 538.261 1220.75 568.754 1183.75 574.616 1165.11 L 577.829 1155.53 C 577.667 1162.37 577.672 1169.25 576.035 1175.94 C 571.125 1196 538.605 1231.71 518.011 1238.07 L 518.088 1229.8 z"/>
<path transform="translate(0,0)" fill="rgb(154,153,153)" d="M 645.674 1554.06 L 746.49 1488.5 L 708.211 1517.25 C 690.28 1532.1 672.948 1551.02 650.816 1559.51 L 645.674 1554.06 z"/>
<path transform="translate(0,0)" fill="rgb(180,180,176)" d="M 1439.27 1536.5 L 1439.89 1537.21 C 1436.2 1543.29 1429.62 1548.33 1424.3 1553.07 L 1309.5 1653.08 L 1308.52 1651.53 C 1350.65 1611.2 1390.63 1569.25 1439.27 1536.5 z"/>
<path transform="translate(0,0)" fill="rgb(210,209,209)" d="M 572.785 1230.94 C 575.413 1234.05 574.759 1237.47 574.918 1241.44 C 569.848 1252.32 565.526 1265.64 559.332 1275.7 L 558.295 1275.74 C 553.632 1275.67 529.103 1294.3 520.018 1299.07 L 519.159 1292.58 L 520.543 1292.46 C 531.626 1284.74 538.785 1274.6 547.162 1264.19 L 572.785 1230.94 z"/>
<path transform="translate(0,0)" fill="url(#Gradient21)" d="M 946.789 576.846 L 979.275 576.254 L 882.5 646.49 C 878.75 638.243 891.314 632.001 897 627.96 L 947.211 595.582 C 955.709 589.71 962.927 582.518 971.722 576.944 C 963.473 577.084 955.002 577.628 946.789 576.846 z"/>
<path transform="translate(0,0)" fill="rgb(154,153,153)" d="M 518.844 1399.88 L 629.49 1335.5 L 540.363 1397.68 C 533.826 1402.44 522.81 1408.15 518.154 1414.44 L 518.844 1399.88 z"/>
<path transform="translate(0,0)" fill="rgb(255,255,255)" d="M 520.018 1299.07 C 529.103 1294.3 553.632 1275.67 558.295 1275.74 L 559.332 1275.7 C 557.756 1280.98 556.019 1285.46 553.344 1290.33 L 552.687 1291.55 C 547.361 1301.28 537.74 1318.35 529.121 1325.26 C 525.979 1321.98 524.222 1321.1 519.8 1320.3 C 518.95 1314.17 518.026 1304.9 520.018 1299.07 z"/>
<path transform="translate(0,0)" fill="url(#Gradient22)" d="M 558.295 1275.74 L 559.332 1275.7 C 557.756 1280.98 556.019 1285.46 553.344 1290.33 L 552.687 1291.55 C 547.361 1301.28 537.74 1318.35 529.121 1325.26 C 525.979 1321.98 524.222 1321.1 519.8 1320.3 C 518.95 1314.17 518.026 1304.9 520.018 1299.07 C 520.883 1303.31 519.862 1312.34 519.856 1317.24 L 526.638 1311.17 C 538.609 1304.24 550.784 1287.83 558.295 1275.74 z"/>
<path transform="translate(0,0)" fill="rgb(210,209,209)" d="M 575.346 859.879 L 593.488 862.253 C 570.972 870.935 542.515 887.509 523.5 901.97 L 523.392 910.5 C 530.402 911.591 541.058 907.792 550.328 908.626 C 542.806 914.631 531.484 916.071 523.456 922.036 C 523.384 926.6 523.756 931.675 522.886 936.147 C 520.315 920.992 521.563 890.954 522.852 875.574 C 523.466 879.812 523.347 884.268 523.486 888.552 C 536.139 882.643 565.102 869.331 575.346 859.879 z"/>
<path transform="translate(0,0)" fill="rgb(197,196,194)" d="M 1741.17 980.473 L 1742.99 1004.83 C 1724.36 1014.31 1665.67 1043.62 1645.5 1044.77 L 1644.92 1043 C 1650.94 1033.37 1670.62 1028.75 1681.02 1024.43 L 1715.85 1008.73 C 1724.73 1004.53 1733.06 1001.25 1740.54 994.752 L 1741.17 980.473 z"/>
<path transform="translate(0,0)" fill="url(#Gradient23)" d="M 522.893 1120.67 C 529.548 1115.12 537.335 1111.14 544.73 1106.68 L 658.483 1041.6 C 662.28 1039.31 670.982 1032.21 674.803 1032.14 C 666.149 1044.35 599.648 1082.08 585.058 1090.61 C 564.922 1102.39 538.912 1112.38 523.001 1129.65 L 522.893 1120.67 z"/>
<path transform="translate(0,0)" fill="url(#Gradient24)" d="M 1123.41 581.013 C 1122.45 582.584 1119.72 584.296 1118.29 585.489 L 1042.65 648.403 C 1031.09 657.44 1019.25 666.623 1006.41 673.788 C 1009.55 667.743 1016.96 662.252 1022.04 657.716 L 1078.34 611.551 C 1092.43 599.464 1105.15 585.304 1120.34 574.548 L 1125.51 576 C 1124.98 577.311 1124.47 578.011 1123.61 579.107 L 1123.41 581.013 z"/>
<path transform="translate(0,0)" fill="rgb(128,126,126)" d="M 776.568 1694.81 L 777.748 1694.57 C 808.606 1688.21 854.636 1643.96 891.533 1630.15 C 878.775 1646.35 859.19 1657.71 841.844 1668.5 L 812.819 1686.33 C 807.589 1689.24 799.052 1691.1 794.972 1694.87 L 776.568 1694.81 z"/>
<path transform="translate(0,0)" fill="rgb(210,209,209)" d="M 1723.46 711.052 C 1723.88 716.056 1723.92 721.472 1725.24 726.318 C 1703.35 731.712 1682.93 741.35 1662.25 750.114 C 1653.18 753.957 1649.7 758.261 1639.61 757.322 L 1643.32 742.214 L 1644.5 744.93 C 1652.07 743.402 1659.68 739.594 1666.93 736.886 L 1698.14 724.42 C 1704.27 721.739 1710.66 719.382 1716.22 715.569 L 1723.46 711.052 z"/>
<path transform="translate(0,0)" fill="rgb(197,196,194)" d="M 1744.42 1207.75 L 1740.68 1225.79 C 1714.33 1225.82 1678.79 1244.72 1653.7 1252.82 C 1668.06 1239.89 1723.64 1209.73 1744.42 1207.75 z"/>
<path transform="translate(0,0)" fill="rgb(210,209,209)" d="M 1729.09 1370.48 C 1711.34 1387.56 1674.08 1400.5 1650.39 1410.51 L 1729.1 1349.34 L 1729.09 1370.48 z"/>
<path transform="translate(0,0)" fill="rgb(197,196,194)" d="M 655.213 1620.57 C 658.658 1621.93 662.17 1623.63 665.81 1624.33 L 664.89 1625.11 C 657.212 1631.09 650.681 1638.15 643.524 1644.74 L 618.407 1666.77 C 609.234 1674.84 598.489 1688.02 585.005 1683.95 L 622.235 1648.72 C 630.991 1640.82 639.283 1631.33 649.116 1624.83 L 655.213 1620.57 z"/>
<path transform="translate(0,0)" fill="rgb(180,180,176)" d="M 519.775 1350.35 C 545.384 1327.95 605.767 1295.11 636.061 1285.99 C 630.349 1291.99 622.704 1296.05 615.661 1300.3 L 531.795 1352.92 C 527.998 1355.5 524.336 1359.62 519.919 1360.87 L 519.775 1350.35 z"/>
<path transform="translate(0,0)" fill="rgb(255,255,255)" d="M 522.954 853.928 C 542.01 851.39 556.535 855.65 575.346 859.879 C 565.102 869.331 536.139 882.643 523.486 888.552 C 523.347 884.268 523.466 879.812 522.852 875.574 L 522.954 853.928 z"/>
<path transform="translate(0,0)" fill="rgb(197,196,194)" d="M 697.682 1585.97 C 746.334 1575.45 778.045 1531.41 824.792 1517.3 C 798.179 1536.33 773.389 1558.13 745.866 1575.93 C 738.571 1580.65 730.473 1583.69 723.054 1588.12 L 723.736 1589.68 C 715.16 1589.16 705.942 1588.34 697.682 1585.97 z"/>
<path transform="translate(0,0)" fill="rgb(197,196,194)" d="M 1700.22 1068.58 L 1699.82 1069.34 C 1697.83 1072.81 1695.31 1074.4 1692 1076.5 C 1695.48 1077 1700.85 1072.96 1705.02 1072.4 C 1692.25 1082.54 1659.58 1101.05 1645.22 1106.4 C 1630.22 1111.98 1536.69 1122.64 1541.04 1090.08 C 1545.54 1089.2 1555.13 1094.61 1559.69 1096.36 C 1629.56 1123.13 1645.12 1102.47 1700.22 1068.58 z"/>
<path transform="translate(0,0)" fill="rgb(197,196,194)" d="M 1610.91 934.377 L 1739.58 874.687 C 1713.79 899.893 1656.56 926.224 1622.74 936.211 L 1598.83 943.783 C 1598.33 942.53 1598.76 943.135 1597.25 942.219 L 1593 943.755 C 1590.81 944.485 1585.9 946.771 1584 946.755 L 1579.25 948.005 C 1576.58 948.953 1577.79 949.057 1575 948.5 L 1585.67 943.63 C 1593.26 939.621 1602.77 937.357 1610.91 934.377 z"/>
<path transform="translate(0,0)" fill="rgb(210,209,209)" d="M 573.739 988.435 C 600.73 966.367 668.051 945.848 705.379 944.112 C 683.25 960.649 652.869 963.729 627.185 972.729 C 616.159 976.593 606.113 982.581 595.258 986.556 C 587.095 982.611 582.05 989.672 573.739 988.435 z"/>
<path transform="translate(0,0)" fill="rgb(197,196,194)" d="M 1223.84 565.11 C 1232.32 565.284 1244.5 563.967 1252.63 565.994 C 1247.93 566.376 1243.87 571.1 1239.88 573.911 L 1157.96 628.834 L 1099.55 662.5 L 1232.81 566.5 C 1229.87 565.601 1226.88 565.407 1223.84 565.11 z"/>
<path transform="translate(0,0)" fill="url(#Gradient25)" d="M 539.632 943.54 C 553.608 930.104 660.908 891.554 689.491 885.108 C 644.434 918.418 589.748 917.033 539.312 955.185 L 533.413 959.507 C 530.93 956.678 527.399 955.863 524.012 954.457 C 529.294 950.533 533.774 946.676 539.632 943.54 z"/>
<path transform="translate(0,0)" fill="rgb(210,209,209)" d="M 1729.62 1281.5 L 1732.12 1281.69 C 1708.62 1318.99 1629.15 1348.92 1588.5 1351.93 L 1586.01 1346 C 1587.11 1344.56 1586.91 1344.13 1588.79 1343.86 C 1636.77 1336.94 1689.52 1309.6 1729.62 1281.5 z"/>
<path transform="translate(0,0)" fill="url(#Gradient26)" d="M 1027.43 1622.03 L 1130.49 1562.5 L 1030.96 1631.22 C 1011.84 1645.48 991.116 1662.1 969.774 1672.74 L 970.71 1671.02 C 971.472 1669.72 972.018 1668.95 972.577 1667.5 L 967.877 1663.28 L 1027.43 1622.03 z"/>
<path transform="translate(0,0)" fill="rgb(210,209,209)" d="M 1670.19 1166.5 C 1672.45 1165.88 1671.45 1165.75 1673.23 1166.5 C 1655.68 1174.91 1640.05 1186.62 1623 1195.93 L 1540.5 1238.43 C 1528.57 1244.42 1515.62 1252.96 1502.5 1255.49 L 1500.53 1254.5 C 1494.85 1241.08 1549.73 1223.13 1561.29 1217.44 L 1670.19 1166.5 z"/>
<path transform="translate(0,0)" fill="url(#Gradient27)" d="M 1044.65 573.455 C 1039.18 582.781 1028.12 589.901 1019.58 596.289 L 906.724 669.914 L 858.918 695.204 C 840.401 704.945 822.516 715.206 802.5 721.638 L 801.227 720.49 C 843.117 683.974 900.39 666.441 948.372 639.699 C 968.731 628.354 989.485 615.131 1008.25 601.301 L 1044.65 573.455 z"/>
<path transform="translate(0,0)" fill="url(#Gradient28)" d="M 908.212 576.968 L 929.362 576.855 C 921.913 578.554 917.59 582.808 911.622 587.315 L 814.796 661.879 C 800.583 672.027 786.204 680.472 770.933 688.932 C 781.542 669.449 803.035 657.835 820.239 644.824 L 908.212 576.968 z"/>
<path transform="translate(0,0)" fill="url(#Gradient29)" d="M 1057.45 1661.84 C 1119.93 1616.81 1185.16 1575.31 1255.5 1543.51 L 1256.49 1544.5 C 1219.62 1570.36 1179.92 1590.77 1142.26 1615.26 L 1076.54 1660.22 C 1070.42 1664.04 1064.5 1668.41 1058.02 1671.6 C 1059.77 1667.14 1058.95 1666.42 1057.45 1661.84 z"/>
<path transform="translate(0,0)" fill="rgb(197,196,194)" d="M 1335.04 564.811 C 1339.96 563.837 1348.07 565.469 1353.51 565.445 L 1354.33 565.994 C 1337.8 569.636 1319.59 584.645 1305.56 593.994 L 1155.44 687.928 C 1181.11 662.098 1207.1 645.441 1237.79 625.76 L 1305.46 581.71 C 1314.63 575.813 1325.9 571.748 1334.39 565.324 L 1335.04 564.811 z"/>
<path transform="translate(0,0)" fill="url(#Gradient30)" d="M 578.216 689.6 C 579.012 693.029 580.027 695.745 581.737 698.822 C 585.024 701.202 587.967 703.426 591.816 704.825 L 594.904 707.5 C 589.217 729.31 535.599 741.738 529.094 777.975 C 528.284 782.484 528.858 789.289 526.51 793 L 523.61 794.248 L 525.958 732.585 C 531.662 727.224 537.898 723.678 544.257 719.219 L 573.768 696.841 C 576.168 694.396 577.426 692.972 578.216 689.6 z"/>
<path transform="translate(0,0)" fill="rgb(210,209,209)" d="M 578.216 689.6 C 579.012 693.029 580.027 695.745 581.737 698.822 C 580.803 700.924 579.956 702.995 578.731 704.948 L 573.768 696.841 C 576.168 694.396 577.426 692.972 578.216 689.6 z"/>
<path transform="translate(0,0)" fill="rgb(210,209,209)" d="M 784.685 1613.79 L 845.401 1602.53 C 840.546 1613.96 825.721 1619.35 815.797 1625.5 L 739.628 1669.6 C 725.259 1677.16 711.978 1686.29 695.01 1685.84 C 703.669 1678.13 711.839 1670.9 721.384 1664.21 L 780.845 1626.29 C 789.08 1620.64 801.29 1616.69 784.685 1613.79 z"/>
<path transform="translate(0,0)" fill="rgb(255,255,255)" d="M 1719.42 680.379 L 1720.7 690.59 L 1723.46 711.052 L 1716.22 715.569 C 1710.66 719.382 1704.27 721.739 1698.14 724.42 L 1666.93 736.886 C 1659.68 739.594 1652.07 743.402 1644.5 744.93 L 1643.32 742.214 C 1645.55 732.288 1646.1 721.999 1648.95 712.227 L 1650.24 705.299 L 1655.5 703.748 C 1671.22 699.588 1687.33 694.378 1702.42 688.204 C 1708.25 685.819 1713.35 682.089 1719.42 680.379 z"/>
<path transform="translate(0,0)" fill="rgb(210,209,209)" d="M 1719.42 680.379 L 1720.7 690.59 C 1705.18 690.944 1684.44 705.534 1663.93 706.287 C 1658.8 706.476 1653.48 709.934 1648.95 712.227 L 1650.24 705.299 L 1655.5 703.748 C 1671.22 699.588 1687.33 694.378 1702.42 688.204 C 1708.25 685.819 1713.35 682.089 1719.42 680.379 z"/>
<path transform="translate(0,0)" fill="url(#Gradient31)" d="M 1555.22 557.773 L 1613.69 558.272 C 1612.26 561.183 1612.43 563.947 1612.34 566.871 L 1544.24 621.499 C 1544.14 622.883 1544.23 622.334 1543.86 623.609 L 1466 624.761 C 1474.16 616.751 1511.98 596.026 1527.66 582.784 C 1534.18 580.048 1549.14 564.072 1555.22 557.773 z"/>
<path transform="translate(0,0)" fill="rgb(0,0,0)" d="M 1466 624.511 L 1543.86 623.609 C 1558.26 625.305 1572.47 627.653 1586.09 632.821 L 1598.61 638.702 C 1621.19 651.923 1640.79 667.749 1647.66 694.066 L 1650.24 705.299 L 1648.95 712.227 C 1646.1 721.999 1645.55 732.288 1643.32 742.214 L 1639.61 757.322 C 1632.9 783.862 1630.07 808.263 1630.85 835.633 C 1615.09 810.011 1619.14 784.397 1607.74 759.678 L 1605.81 747.413 C 1607.59 739.718 1608.47 725.821 1606.34 718.321 L 1605.93 717 C 1599.72 695.614 1587.27 704.142 1572.82 712.834 L 1555.16 722.571 C 1579.57 693.627 1603.27 700.579 1568.43 668.486 C 1562.38 662.977 1556.13 658.498 1549.18 654.179 L 1543 652.098 C 1506.51 639.55 1396.14 654.59 1356.04 657.619 C 1342.42 658.648 1328.56 657.318 1315 658.75 C 1308.07 659.481 1273.78 669.866 1270.81 668.5 C 1279.33 666.805 1324.32 654.381 1330.92 651.335 L 1332.17 650.742 C 1367.57 636.526 1407.85 632.437 1445.36 625.644 L 1446.2 625.591 C 1452.44 625.083 1460.11 626.255 1466 624.511 z"/>
<path transform="translate(0,0)" fill="rgb(255,255,255)" d="M 1613.69 558.542 L 1621.78 558.871 C 1643.87 559.571 1660.08 558.732 1679.24 572.559 L 1684.78 576.443 C 1700.02 586.366 1707.49 601.103 1711.08 618.5 L 1713.59 633.244 L 1716.48 655.613 L 1719.42 680.379 C 1713.35 682.089 1708.25 685.819 1702.42 688.204 C 1687.33 694.378 1671.22 699.588 1655.5 703.748 L 1650.24 705.299 L 1647.66 694.066 C 1640.79 667.749 1621.19 651.923 1598.61 638.702 L 1586.09 632.821 C 1572.47 627.653 1558.26 625.305 1543.86 623.609 C 1544.23 622.334 1544.14 622.883 1544.24 621.499 L 1612.34 566.871 C 1612.43 563.947 1612.26 561.183 1613.69 558.542 z"/>
<path transform="translate(0,0)" fill="rgb(255,255,255)" d="M 1613.69 558.542 L 1621.78 558.871 C 1643.87 559.571 1660.08 558.732 1679.24 572.559 L 1684.78 576.443 C 1670.01 591.449 1652.28 602.792 1634.9 614.494 L 1598.61 638.702 L 1586.09 632.821 C 1572.47 627.653 1558.26 625.305 1543.86 623.609 C 1544.23 622.334 1544.14 622.883 1544.24 621.499 L 1612.34 566.871 C 1612.43 563.947 1612.26 561.183 1613.69 558.542 z"/>
<path transform="translate(0,0)" fill="rgb(197,196,194)" d="M 1679.24 572.559 L 1684.78 576.443 C 1670.01 591.449 1652.28 602.792 1634.9 614.494 L 1598.61 638.702 L 1586.09 632.821 L 1679.24 572.559 z"/>
<path transform="translate(0,0)" fill="rgb(0,0,0)" d="M 584.749 1433.09 L 585.963 1432.33 C 588.624 1430.75 595.177 1428.33 598.192 1429.18 C 599.345 1439.73 598.457 1449.89 598.9 1460.44 L 599.584 1460.75 C 599.901 1466.6 600.054 1472.3 601.71 1477.97 L 605.852 1476.64 L 607.145 1477.57 C 612.568 1481.37 614.1 1479.1 614.497 1486.85 L 610.663 1491.9 C 613.672 1499.05 615.261 1514.24 625.601 1509.94 C 629.39 1514.25 629.266 1515.03 629.819 1520.82 C 622.875 1533.29 636.575 1545.98 645.674 1554.06 L 650.816 1559.51 C 663.492 1572.39 679.769 1582.58 697.682 1585.97 C 705.942 1588.34 715.16 1589.16 723.736 1589.68 C 773.634 1598.61 858.791 1580.42 910 1574.62 L 934.983 1572.6 C 938.84 1572.39 943.583 1571.56 947.343 1572.5 C 947.269 1573.85 947.185 1574.08 946.025 1575.77 C 931.473 1577.6 916.47 1584.97 902.295 1589.07 L 845.401 1602.53 L 784.685 1613.79 C 740.014 1621.73 711.242 1631.25 665.81 1624.33 C 662.17 1623.63 658.658 1621.93 655.213 1620.57 C 642.594 1614.59 631.41 1606.51 620.922 1597.32 C 604.997 1602.19 589.048 1611.28 575.162 1620.29 L 572.459 1618.02 C 557.718 1626.68 538.257 1639.74 527.718 1653.73 C 517.097 1634.84 516.598 1602.28 518.397 1580.93 L 518.342 1535.81 L 518.898 1535.31 L 518.12 1516.79 L 518.138 1510.39 L 517.889 1464.09 L 584.749 1433.09 z M 518.397 1580.93 C 516.598 1602.28 517.097 1634.84 527.718 1653.73 C 538.257 1639.74 557.718 1626.68 572.459 1618.02 C 586.185 1609.72 601.864 1598.84 617.576 1595.42 L 618.747 1595.19 C 605.421 1577.61 597.099 1561.98 590.82 1540.72 C 585.153 1543.11 580.278 1546.79 575 1549.91 L 543.83 1567.89 C 535.61 1572.48 526.305 1575.51 518.397 1580.93 z"/>
<path transform="translate(0,0)" fill="rgb(54,53,53)" d="M 601.71 1477.97 L 605.852 1476.64 L 607.145 1477.57 C 612.568 1481.37 614.1 1479.1 614.497 1486.85 L 610.663 1491.9 C 607.342 1487.08 605.996 1482.31 601.71 1477.97 z"/>
<path transform="translate(0,0)" fill="rgb(255,255,255)" d="M 517.889 1464.09 L 584.749 1433.09 L 582.864 1442.29 C 579.22 1472.07 583.886 1505.89 589.718 1535.21 L 590.82 1540.72 C 585.153 1543.11 580.278 1546.79 575 1549.91 L 543.83 1567.89 C 535.61 1572.48 526.305 1575.51 518.689 1580.93 L 518.342 1535.81 L 518.898 1535.31 L 518.12 1516.79 L 518.138 1510.39 L 517.889 1464.09 z"/>
<path transform="translate(0,0)" fill="rgb(197,196,194)" d="M 589.718 1535.21 L 590.82 1540.72 C 585.153 1543.11 580.278 1546.79 575 1549.91 L 543.83 1567.89 C 535.61 1572.48 526.305 1575.51 518.689 1580.93 L 518.342 1535.81 L 518.54 1574.43 C 524.599 1569.01 555.589 1554.56 566.232 1548.29 L 589.718 1535.21 z"/>
<path transform="translate(0,0)" fill="rgb(128,126,126)" d="M 517.889 1464.09 L 584.749 1433.09 L 582.864 1442.29 C 574.585 1444.78 524.411 1468.24 518.479 1474.74 C 518.918 1486.07 520.332 1499.28 518.138 1510.39 L 517.889 1464.09 z"/>
<path transform="translate(0,0)" fill="rgb(210,209,209)" d="M 518.12 1516.79 L 519.5 1521.65 C 528.986 1517.75 573.201 1495.04 581.011 1488.98 L 580.438 1495.61 C 570.494 1497.27 558.362 1511.44 550 1517.16 C 540.079 1523.94 528.939 1528.65 518.898 1535.31 L 518.12 1516.79 z"/>
<path transform="translate(0,0)" fill="rgb(0,0,0)" d="M 892.23 1364.83 C 871.352 1384.14 830.599 1384.12 803.5 1380.2 C 651.425 1358.22 682.156 1135.31 850.439 1121.25 C 875.077 1119.19 881.637 1129.56 882.067 1108.91 L 882.241 937.901 C 882.242 882.181 866.866 823.459 947.942 829.938 C 951.932 830.256 956.108 832.865 959.838 832.377 C 977.336 830.084 1023.35 820.967 1039.5 816.013 C 1045.75 798.037 1058.53 809.516 1071.28 810.462 C 1080.06 811.113 1084.05 804.16 1090.19 799.586 C 1102.73 797.287 1114.85 797.483 1127.44 794.393 L 1193.78 776.763 C 1233.98 764.121 1251.58 757.722 1293.91 750.855 C 1315.53 747.348 1366.42 734.026 1368.29 773.711 L 1367.92 1140.87 C 1367.92 1164.86 1367 1185.02 1358.04 1207.5 C 1302.94 1345.82 1090.32 1324.91 1105.64 1180.03 C 1112.46 1115.47 1159.29 1063.01 1224.72 1056.43 C 1238.32 1055.06 1252.62 1055.69 1266.31 1055.41 L 1268.16 959.5 L 1265.66 959.5 C 1271.09 952.033 1268.33 934.252 1268.2 925.059 L 1268.14 917.594 L 1267.32 872.152 L 1171.9 916.795 C 1127.85 943.483 1141.74 928.198 1109.37 926.185 C 1072.8 932.306 1041.31 950.064 1009.01 967.456 C 983.538 981.169 972.396 977.74 972.368 1002.94 L 972.364 1146.81 C 972.383 1199.75 973.465 1239.31 953.44 1288.76 C 950.276 1295.34 946.765 1301.14 942.519 1307.08 C 930.697 1327.58 912.879 1352.51 892.23 1364.83 z M 1303.8 761.5 L 1294.7 764.954 L 1296.72 783.049 C 1298.97 783.814 1301.29 782.18 1303.46 781.293 C 1319.39 770.657 1309.32 774.145 1307.25 761.849 C 1304.92 761.053 1306.08 761.132 1303.8 761.5 z M 1322.41 999.36 L 1321.99 1000.24 C 1320.43 1003.39 1318.97 1004.98 1316.13 1007 C 1318.18 1009.84 1324.65 1010.52 1328.18 1011.58 L 1332.5 1009.8 C 1334.21 1006.83 1334.39 1001.39 1332.5 998.578 L 1322.41 999.36 z"/>
<path transform="translate(0,0)" fill="rgb(87,86,87)" d="M 897.423 1236.37 C 903.556 1236.36 910.019 1237.02 915.71 1234.5 L 922.238 1233 C 920.698 1236.34 918.101 1239.39 914.578 1240.75 L 913.156 1241.25 C 907.873 1235.2 906.018 1237.9 898.401 1236.55 L 897.423 1236.37 z"/>
<path transform="translate(0,0)" fill="rgb(87,86,87)" d="M 879.841 1302.5 L 881.822 1302.59 C 875.292 1309.48 873.956 1311.15 865.5 1309.8 C 864.417 1309.66 863.287 1309.24 862.234 1308.94 L 879.841 1302.5 z"/>
<path transform="translate(0,0)" fill="rgb(197,196,194)" d="M 911.91 1070.29 L 930.428 1070.08 L 928.024 1071.43 C 924.411 1073.42 915.885 1078.59 912.184 1077.5 L 911.91 1070.29 z"/>
<path transform="translate(0,0)" fill="rgb(154,153,153)" d="M 1312.77 847.69 L 1326.3 846.5 C 1325.8 850.886 1325.03 853.044 1321.55 855.899 L 1315.98 859.821 C 1316.26 855.929 1316.05 855.933 1319.01 853 L 1312.77 847.69 z"/>
<path transform="translate(0,0)" fill="rgb(197,196,194)" d="M 1311.14 1115.94 L 1312.54 1115.83 C 1316.62 1115.89 1319.53 1118.27 1322.33 1120.97 L 1311.25 1122.89 L 1293.94 1122.64 L 1311.14 1115.94 z"/>
<path transform="translate(0,0)" fill="rgb(255,255,255)" d="M 932.071 987.5 L 936.855 988.5 C 935.391 996.057 928.02 993.673 917.261 997.382 L 912.728 996.5 L 932.071 987.5 z"/>
<path transform="translate(0,0)" fill="rgb(87,86,87)" d="M 854.397 1282.5 L 854.587 1283.58 C 847.468 1289.2 839.933 1292.68 831.5 1295.89 L 831.813 1290 C 834.192 1285.22 847.765 1284.77 853.096 1282.96 L 854.397 1282.5 z"/>
<path transform="translate(0,0)" fill="rgb(180,180,176)" d="M 1318.83 1074.5 C 1330.25 1073.14 1341.19 1074.19 1341.46 1086.5 L 1340.18 1087.55 C 1333.52 1082.49 1325.23 1079.8 1318.83 1074.5 z"/>
<path transform="translate(0,0)" fill="rgb(197,196,194)" d="M 754.249 1199.25 C 759.84 1201.83 769.155 1197.34 776.415 1198.17 L 747.849 1210.58 L 754.249 1199.25 z"/>
<path transform="translate(0,0)" fill="rgb(128,126,126)" d="M 1323.3 833.5 C 1328.51 842.792 1305.01 846.928 1297.31 850.401 C 1304.71 841.981 1313.34 838.336 1323.3 833.5 z"/>
<path transform="translate(0,0)" fill="rgb(197,196,194)" d="M 1300.79 1151.32 L 1304.27 1151.1 C 1309.13 1150.99 1321.13 1151.37 1324.5 1154.49 C 1319.54 1156.99 1313.16 1156.08 1307.75 1155.96 L 1281.74 1156 C 1288.03 1153.87 1294.24 1152.38 1300.79 1151.32 z"/>
<path transform="translate(0,0)" fill="rgb(128,126,126)" d="M 1221.12 1158.5 C 1222.85 1158.45 1223.95 1158.9 1225.58 1159.44 L 1225.99 1161.5 C 1224.22 1163.6 1223.9 1163.89 1221.32 1164.79 L 1220 1159.9 L 1218.15 1165.5 C 1217.58 1168.07 1213.63 1169.64 1211.51 1170.86 L 1206.5 1171.28 C 1193.09 1162.8 1211.91 1160.58 1221.12 1158.5 z"/>
<path transform="translate(0,0)" fill="rgb(180,180,176)" d="M 1313.21 1242.43 L 1316.5 1242.27 C 1314.57 1246.82 1299.97 1255.68 1295.5 1258.57 L 1291.21 1259 C 1297.51 1245.3 1299.04 1244.19 1313.21 1242.43 z"/>
<path transform="translate(0,0)" fill="rgb(128,126,126)" d="M 913.156 1241.25 C 899.899 1246.74 897.872 1245.9 884.017 1243.21 C 887.157 1240.05 893.038 1237.21 897.423 1236.37 L 898.401 1236.55 C 906.018 1237.9 907.873 1235.2 913.156 1241.25 z"/>
<path transform="translate(0,0)" fill="rgb(197,196,194)" d="M 774.884 1238.5 L 776.782 1239.05 C 766.712 1246.29 748.645 1249.06 736.5 1250.71 L 734.723 1248.72 C 746.113 1241.5 761.777 1240.58 774.884 1238.5 z"/>
<path transform="translate(0,0)" fill="rgb(128,126,126)" d="M 859.747 1172.5 L 864 1171.93 C 879.204 1178.43 848.442 1181.36 844 1181.97 C 840.791 1184.88 838.087 1186.37 834.019 1187.84 L 825.065 1188.65 L 859.747 1172.5 z"/>
<path transform="translate(0,0)" fill="rgb(255,255,255)" d="M 912.002 1137.5 C 918.951 1135.89 934.525 1136.7 940.564 1140.44 L 938.5 1145.31 L 926 1144.91 C 921.782 1144.46 911.746 1141.89 908.949 1138.5 L 912.002 1137.5 z"/>
<path transform="translate(0,0)" fill="rgb(210,209,209)" d="M 1327.48 936.144 C 1330.07 936.135 1328.96 935.927 1331.42 936.762 L 1333.49 937.5 C 1335.85 938.173 1336.99 938.362 1338.89 940 L 1338 940.883 C 1329.87 941.491 1322.66 943.851 1314.95 946.376 C 1289.14 952.924 1311.01 939.877 1327.48 936.144 z"/>
<path transform="translate(0,0)" fill="rgb(210,209,209)" d="M 933.011 1020.5 C 946.256 1024.07 920.57 1034.31 915.995 1035.5 C 911.314 1035.99 912.902 1030.42 913.5 1027.26 C 918.816 1022.5 926.211 1021.6 933.011 1020.5 z"/>
<path transform="translate(0,0)" fill="url(#Gradient32)" d="M 1206.32 1208.15 C 1207.84 1208.03 1208.2 1208.21 1209.56 1208.79 C 1203.94 1217.75 1185.26 1223.32 1175.52 1225.84 C 1172.96 1225.89 1174.07 1226.24 1172.13 1225 L 1172.59 1224.23 C 1179.43 1214.7 1195.49 1210.69 1206.32 1208.15 z"/>
<path transform="translate(0,0)" fill="rgb(210,209,209)" d="M 1328.18 1011.58 C 1322.69 1014.71 1309.69 1019.81 1304.21 1017 C 1302.98 1003.22 1310.21 1001.9 1322.41 999.36 L 1321.99 1000.24 C 1320.43 1003.39 1318.97 1004.98 1316.13 1007 C 1318.18 1009.84 1324.65 1010.52 1328.18 1011.58 z"/>
<path transform="translate(0,0)" fill="rgb(87,86,87)" d="M 1259.44 1186.2 C 1262.56 1185.88 1265.38 1185.94 1268.5 1186.19 L 1267.95 1187.5 C 1257.78 1192.82 1247.28 1196.41 1236.28 1199.6 C 1231.71 1200.65 1227.1 1201.02 1222.44 1201.47 C 1234.29 1192.71 1245.11 1188.99 1259.44 1186.2 z"/>
<path transform="translate(0,0)" fill="rgb(87,86,87)" d="M 889.295 1198.23 C 894.099 1197.8 900.81 1196.54 904.217 1199.93 C 912.561 1208.22 914.832 1199.72 921.5 1203.41 L 920.751 1204.5 C 915.309 1206.26 911.1 1206.21 905.631 1204.52 C 892.424 1206.54 879.276 1206.05 865.965 1205.8 C 874.267 1203.85 880.921 1200.01 889.295 1198.23 z"/>
<path transform="translate(0,0)" fill="rgb(128,126,126)" d="M 1193.01 1169.87 L 1205.85 1171.9 L 1176.02 1187.66 L 1165.09 1191.52 C 1173.26 1181.09 1181.74 1176.33 1193.01 1169.87 z"/>
<path transform="translate(0,0)" fill="rgb(210,209,209)" d="M 1315.98 859.821 L 1298.29 870.265 C 1298.93 865.28 1298.97 860.518 1298.88 855.513 L 1312.77 847.69 L 1319.01 853 C 1316.05 855.933 1316.26 855.929 1315.98 859.821 z"/>
<path transform="translate(0,0)" fill="rgb(210,209,209)" d="M 925.846 1081.07 C 942.467 1080.69 934.465 1091.29 921.356 1095.52 L 913.5 1096.84 C 905.349 1086.66 919.245 1083.35 925.846 1081.07 z"/>
<path transform="translate(0,0)" fill="rgb(128,126,126)" d="M 1336.47 1028.5 L 1338.4 1028.41 C 1339.48 1032.24 1335.64 1033.49 1334.5 1037.24 C 1343.08 1030.16 1342.35 1042.54 1334.37 1039.77 C 1329.47 1038.06 1321.51 1040.16 1316.35 1040.79 C 1312.59 1040.89 1304.88 1042.19 1302.06 1040 L 1303 1038.15 C 1313.43 1033.97 1325.63 1031.82 1336.47 1028.5 z"/>
<path transform="translate(0,0)" fill="rgb(210,209,209)" d="M 1321.03 971.08 C 1326.49 970.686 1336.42 971.539 1332.63 979.5 L 1315.22 984.857 C 1311.94 985.919 1307.96 986.484 1304.5 986.517 L 1303.87 984.5 C 1305.75 974.585 1311.83 973.501 1321.03 971.08 z"/>
<path transform="translate(0,0)" fill="url(#Gradient33)" d="M 802.082 1259.5 L 804.82 1260.7 C 793.915 1271.43 757.756 1275.94 743.5 1276.08 L 740.463 1275.5 C 760.293 1267.15 781.068 1263.55 802.082 1259.5 z"/>
<path transform="translate(0,0)" fill="url(#Gradient34)" d="M 1271.3 1223.21 C 1290.66 1221.05 1248.82 1233.63 1246 1234.81 C 1232.31 1240.49 1219.65 1247.26 1205.1 1250.87 C 1203.38 1250.8 1201.69 1250.43 1200 1250.14 L 1199.28 1249.03 C 1208.04 1239.33 1233.17 1235.12 1245.19 1231.51 L 1271.3 1223.21 z"/>
<path transform="translate(0,0)" fill="rgb(180,180,176)" d="M 1281.63 1245.5 C 1282.89 1245.4 1284.12 1245.46 1285.38 1245.5 C 1267.26 1257.82 1273.32 1262.33 1247 1261.31 L 1227.5 1261.01 C 1226.12 1260.67 1224.62 1260.05 1223.28 1259.61 L 1281.63 1245.5 z"/>
<path transform="translate(0,0)" fill="rgb(210,209,209)" d="M 798.83 1296.95 C 804.52 1296.14 811.444 1296.84 817.346 1296.56 C 810.045 1306.72 802.964 1311.73 791.45 1316.52 C 786.811 1318.1 779.439 1319.78 775.689 1315.5 L 775.995 1314.46 C 779.482 1306.21 791.353 1300.62 798.83 1296.95 z"/>
<path transform="translate(0,0)" fill="rgb(180,180,176)" d="M 1333.14 1049.38 L 1340.5 1049.06 C 1343.2 1051.76 1342.03 1060.3 1342.07 1064.32 L 1306.38 1063.67 C 1274.31 1062 1324.84 1050.05 1333.14 1049.38 z"/>
<path transform="translate(0,0)" fill="rgb(180,180,176)" d="M 884.819 1166.2 L 901.178 1165.88 C 909.189 1165.86 935.538 1166.03 941.652 1172.11 L 940.5 1174.14 C 938.906 1174.79 938.034 1175.22 936.792 1176.47 L 931.755 1177.56 C 917.2 1176.98 909.42 1174.66 897.006 1173.6 C 881.68 1172.28 857.513 1174.91 884.819 1166.2 z"/>
<path transform="translate(0,0)" fill="rgb(210,209,209)" d="M 911.91 1070.29 C 911.857 1049.11 915.231 1047.96 936.227 1043.75 C 937.011 1052.85 940.19 1065.98 930.428 1070.08 L 911.91 1070.29 z"/>
<path transform="translate(0,0)" fill="rgb(154,153,153)" d="M 1276.11 1102.06 C 1282.72 1101.72 1291.6 1100.69 1297.94 1102.55 L 1299 1102.89 C 1303.37 1104.23 1306.61 1106.29 1310.35 1108.85 C 1298.99 1112.08 1288.38 1115.01 1277.23 1119.23 L 1248.91 1127.03 C 1257.4 1117.69 1264.79 1108.05 1276.11 1102.06 z"/>
<path transform="translate(0,0)" fill="rgb(255,255,255)" d="M 1205.86 1125.01 C 1227.61 1125.92 1178.76 1148.47 1176 1149.96 L 1144.25 1166.59 L 1139.53 1167.5 C 1154.04 1148.3 1182.85 1132.49 1205.86 1125.01 z"/>
<path transform="translate(0,0)" fill="url(#Gradient35)" d="M 940.468 1296.95 C 940.494 1300.1 940.674 1302.04 938.643 1304.68 L 942.519 1307.08 C 930.697 1327.58 912.879 1352.51 892.23 1364.83 C 893.951 1360.47 897.709 1357.64 901.5 1355 L 903.51 1352.5 C 900.371 1350.92 892.352 1359.21 884.975 1359.49 C 873.571 1363.33 863.93 1364.83 851.927 1365.97 C 898.823 1342.8 907.545 1335.29 940.468 1296.95 z"/>
<path transform="translate(0,0)" fill="url(#Gradient36)" d="M 884.975 1359.49 C 899.05 1351.43 917.29 1337.27 926.549 1323.45 C 930.439 1317.64 933.696 1309.52 938.643 1304.68 L 942.519 1307.08 C 930.697 1327.58 912.879 1352.51 892.23 1364.83 C 893.951 1360.47 897.709 1357.64 901.5 1355 L 903.51 1352.5 C 900.371 1350.92 892.352 1359.21 884.975 1359.49 z"/>
<path transform="translate(0,0)" fill="rgb(180,180,176)" d="M 939.485 852.179 C 941.925 851.895 943.486 851.586 945.836 852.5 C 946.423 862.86 947.609 881.74 941.3 890.186 C 942.277 895.21 939.498 892.918 936.158 894.305 L 918.85 901.013 C 915.514 901.617 914.797 901.981 913.846 903.119 L 913.044 875.157 C 913.793 857.43 923.057 855.579 939.485 852.179 z"/>
<path transform="translate(0,0)" fill="rgb(255,255,255)" d="M 1220.24 1083.34 L 1229.32 1082.87 C 1216.26 1101.66 1212.65 1106.46 1191.57 1116.39 L 1158.64 1132.27 L 1149.93 1136.51 C 1158.65 1113.05 1194.94 1086.55 1220.24 1083.34 z"/>
<path transform="translate(0,0)" fill="rgb(210,209,209)" d="M 1329.44 876.5 C 1343.52 871.43 1343.9 906.422 1344.3 912.821 C 1333.8 912.737 1324.17 913.237 1313.77 914.921 C 1309.82 915.419 1305.43 915.674 1301.71 917.151 L 1299.75 891.117 C 1302.43 888.082 1305.38 887.493 1308.94 885.792 L 1329.44 876.5 z"/>
<path transform="translate(0,0)" fill="rgb(255,255,255)" d="M 913.505 912.5 C 918.835 920.666 936.474 914.272 943.024 911.759 L 942.834 967.538 L 928.5 970.819 C 923.729 971.848 918.549 972.155 913.994 973.951 L 912.411 936.737 C 912.455 928.674 912.094 920.458 913.505 912.5 z"/>
<path transform="translate(0,0)" fill="rgb(255,255,255)" d="M 820.124 1146.03 C 828.893 1143.04 836.141 1141 845.5 1141.08 L 847.235 1142.5 C 842.434 1150.01 833.334 1156.53 826.439 1162.18 C 810.632 1175.8 795.341 1189.04 776.415 1198.17 C 769.155 1197.34 759.84 1201.83 754.249 1199.25 C 766.596 1173.3 794.138 1156.19 820.124 1146.03 z"/>
<path transform="translate(0,0)" fill="rgb(255,255,255)" d="M 1026.52 860.397 L 1027.42 860.7 C 1037.69 863.805 1095.54 853.883 1068.99 839.676 L 1066.03 836.5 C 1069.41 828.568 1081.25 832.505 1087.81 833.565 L 1088.35 834.34 C 1101.96 853.163 1191.99 817.158 1207.2 808.778 C 1235.21 793.355 1232.51 783.685 1270.63 774.816 L 1269.99 820.008 C 1269.95 828.157 1270.8 837.378 1269.42 845.325 C 1253.61 850.983 1238.19 858.422 1222.62 864.782 L 1140 894.938 C 1104.5 906.172 1067.15 911.018 1032.15 923.654 C 1024.13 926.551 966.009 954.984 962.508 954.617 L 965.617 900.194 C 967.222 884.05 967.666 873.698 984.992 867.884 C 981.26 867.451 974.067 869.571 970.3 870.879 L 967.981 870.534 C 959.265 849.803 1016.26 842.526 1030.05 840.394 C 1059.71 835.808 1037.25 850.449 1026.52 860.397 z"/>
</svg>