<svg version="1.1" xmlns="http://www.w3.org/2000/svg" style="display: block;" viewBox="0 0 2048 2048" width="640" height="640">
<path transform="translate(0,0)" fill="rgb(0,0,0)" d="M 1004.04 1511.56 C 966.208 1452.78 934.627 1388.39 912.189 1322.23 C 896.042 1325.33 880.169 1331.41 864.039 1335.03 C 564.858 1402.18 301.195 986.711 241.5 746.064 C 230.711 702.568 222.085 652.002 218.988 606.906 L 218.698 503.364 C 219.273 484.434 221.754 466.078 224.433 447.346 C 233.118 386.617 261.248 306.28 330.136 367.007 C 431.06 455.975 564.992 494.836 697.218 503.639 L 728.788 504.742 C 888.883 513.171 1065.63 497.215 1201.91 406.415 L 1240.46 378.979 C 1256.43 366.633 1269.77 351.277 1289.56 345.247 C 1344.09 338.565 1355.1 395.388 1362.64 437.019 L 1370.13 479.115 C 1377.52 528.529 1378.91 577.501 1375.66 627.517 C 1368.41 739.147 1331.82 846.101 1281.06 945.013 C 1301.25 947.623 1322.01 946.838 1342.33 946.861 C 1452.99 946.985 1561.94 934.066 1665.39 893.628 C 1708.66 876.716 1763.74 843.243 1799.36 899.223 C 1810.96 917.459 1812.56 940.138 1815.39 961.031 C 1828.06 1054.34 1825.14 1153.47 1803.83 1245.42 C 1760.78 1431.19 1637.66 1626.25 1475.56 1726.5 C 1372.67 1790.14 1299.81 1782.98 1203.59 1717.91 C 1127.27 1666.29 1052.82 1590.64 1004.04 1511.56 z M 1299.41 397.545 C 1284.76 407.706 1271.37 419.643 1257.17 430.419 C 1154.6 508.242 1033.48 539.456 907.326 551.932 L 866.5 556.081 L 721.752 556.374 C 599.065 550.686 458.726 519.888 356.637 450.429 L 320.806 424.208 C 309.831 415.44 299.324 406.102 287.644 398.262 C 277.416 427.894 273.904 459.029 270.912 490 C 250.938 696.79 331.512 901.055 454.456 1064.2 C 519.81 1150.93 598.226 1229.67 699.736 1272.25 C 773.857 1300.14 826.73 1293.23 898.641 1272.29 C 888.639 1229.95 877.363 1184.73 875.601 1141 L 875.279 1074.01 C 875.298 1065.27 876.304 1055.3 875.029 1046.69 C 852.97 1049.46 831.068 1053.17 808.844 1054.44 C 713.65 1059.87 611.778 1024.99 550.711 949.087 C 523.677 915.488 560.936 888.497 583.335 908.642 C 590.171 914.789 595.893 922.634 602.144 929.389 C 659.763 991.647 731.078 1005.4 811.017 1003.1 C 817.879 1002.9 824.34 1002.41 831.09 1001.1 L 866.588 994.472 C 871.029 993.453 876.159 992.713 880.284 990.857 C 889.681 897.458 912.267 836.891 1017.08 884.725 L 1054.45 900.452 C 1107.98 921.228 1168.85 936.964 1226.35 940.763 C 1286.69 822.745 1321.71 724.562 1325.5 591.344 L 1325.18 540.257 C 1324.09 502.123 1314.88 427.812 1299.41 397.545 z M 951.513 919.222 C 919.839 939.531 924.882 1124.84 929.099 1163.38 C 950.869 1362.36 1073.63 1577.17 1245.38 1684.38 C 1268.54 1698.83 1294.25 1712.74 1321.13 1718.55 C 1426.53 1741.32 1565.22 1593.58 1620.16 1519.46 C 1739.46 1351.05 1797.6 1153.77 1762.89 949.096 C 1757.06 914.738 1747.83 914.463 1718.36 927.464 L 1687.13 940.568 C 1627.99 963.378 1565.69 979.732 1502.82 987.817 L 1470.1 991.803 C 1434.69 995.08 1407.79 996.641 1371.44 996.701 C 1244.85 996.91 1134.7 989.432 1015.13 939.296 C 993.49 930.224 975.907 916.734 951.513 919.222 z"/>
<path transform="translate(0,0)" fill="rgb(0,0,0)" d="M 1044.33 808.644 C 1013.72 812.559 852.413 809.518 848.88 765.541 C 847.062 742.917 870.329 712.759 884.431 696.815 C 920.236 656.334 968.445 630.578 1022.6 627.425 C 1074.32 625.848 1122.63 635.845 1171.38 653.289 C 1209.81 667.039 1236.01 677.901 1205.96 717.765 C 1167.71 768.507 1106.57 799.984 1044.33 808.644 z M 1028.54 677.403 C 981.589 681.599 930.405 704.118 910.084 749.609 C 951.36 759.039 993.552 762.568 1035.76 758.616 C 1080.61 751.386 1120.45 734.045 1152.37 701.055 C 1121.51 690.077 1061.99 671.955 1028.54 677.403 z"/>
<path transform="translate(0,0)" fill="rgb(0,0,0)" d="M 607.491 811.319 C 545.991 810.641 500.936 799.62 449.34 761.911 C 406.604 730.678 354.805 689.536 430.11 658.5 C 469.428 642.296 508.346 631.593 550.732 628.432 C 635.878 621.914 711.876 665.256 754.769 737.66 C 761.693 749.347 771.318 768.201 759.703 780.219 C 734.794 805.992 647.391 811.054 607.491 811.319 z M 567.479 678.543 C 555.746 678.738 542.842 677.945 531.405 680.728 L 504.322 686.119 C 487.342 690.158 470.81 695.62 454.816 702.609 C 495.907 736.155 538.19 757.996 592.705 760.559 L 642.926 759.605 C 662.728 758.318 683.26 754.738 702.618 750.557 C 677.104 716.414 641.225 685.824 597.5 679.648 L 567.479 678.543 z"/>
<path transform="translate(0,0)" fill="rgb(0,0,0)" d="M 1531.59 1196.39 C 1477.94 1189.68 1478.96 1235.36 1454.98 1240.63 C 1422.6 1247.75 1413.21 1214.61 1435.24 1188.31 C 1457.51 1161.7 1484.3 1147.68 1518.7 1144.42 C 1581.07 1141.19 1653.39 1216.67 1611.05 1241.17 C 1580.45 1258.88 1575.45 1208.02 1531.59 1196.39 z"/>
<path transform="translate(0,0)" fill="rgb(0,0,0)" d="M 1188.72 1196.11 C 1159.72 1193.19 1142.44 1205.51 1126.32 1228.13 C 1099.53 1265.69 1059.52 1231.94 1086.6 1194.91 C 1106.68 1167.45 1133.19 1150.63 1166.57 1145.31 C 1258.78 1136.54 1311.47 1241.19 1255.25 1243.21 C 1229.42 1244.14 1226.78 1204.26 1188.72 1196.11 z"/>
<path transform="translate(0,0)" fill="rgb(0,0,0)" d="M 1509.79 1528.47 C 1387.48 1665.93 1204.16 1614.7 1138.96 1455.83 C 1129.21 1432.07 1109.88 1388.28 1148.72 1380.21 C 1160.72 1379.89 1170.95 1385.59 1181.73 1390.06 L 1210.85 1401.43 C 1300.78 1434.22 1387.37 1432.59 1477.09 1403.91 L 1508.75 1392.65 C 1520.89 1387.83 1531.87 1382.89 1544.83 1380.57 C 1601.54 1399.9 1530.56 1503.42 1509.79 1528.47 z M 1190.11 1448.01 C 1193.44 1456.38 1198.75 1464.72 1203.63 1472.29 C 1266.13 1569.27 1386.59 1590.05 1467.52 1498.32 C 1480.72 1483.61 1493.4 1467.28 1502.68 1449.77 C 1399.52 1479.32 1324.35 1489.2 1216.35 1455.98 C 1208.68 1453.62 1197.97 1448.55 1190.11 1448.01 L 1189.24 1447.18 L 1190.11 1448.01 z"/>
</svg>