<svg version="1.1" xmlns="http://www.w3.org/2000/svg" style="display: block;" viewBox="0 0 2048 2048" width="640" height="640">
<defs>
	<linearGradient id="Gradient1" gradientUnits="userSpaceOnUse" x1="1102.18" y1="1717.58" x2="1277.45" y2="809.402">
		<stop class="stop0" offset="0" stop-opacity="1" stop-color="rgb(163,14,15)"/>
		<stop class="stop1" offset="1" stop-opacity="1" stop-color="rgb(255,205,59)"/>
	</linearGradient>
</defs>
<path transform="translate(0,0)" fill="rgb(0,0,0)" d="M 1129.48 203.344 C 1166.74 201.099 1199.14 229.027 1202.17 266.625 C 1204.39 294.161 1192.51 314.9 1175.42 335.106 L 1193.14 344.358 C 1199.18 349.396 1198.78 367.744 1199.29 375.211 L 1238.01 375.803 L 1239.37 371.165 C 1247.2 342.453 1319.96 341.943 1325.18 379.477 L 1325.38 381 C 1327.37 394.434 1328.18 415.4 1325.1 428.717 L 1322.29 439 C 1312.8 466.526 1264.76 470.466 1247.5 459.964 C 1232.11 450.595 1259.44 438.291 1222.81 437.801 L 1194.9 437.668 C 1193.61 453.866 1193.11 477.583 1195.51 493.605 C 1204.01 493.709 1234.68 495.769 1240.43 492.381 C 1242.87 490.949 1243.93 484.872 1247.15 482.361 C 1255.59 475.788 1293.77 477.655 1303.29 479.219 L 1306.45 479.883 C 1330.09 484.793 1329.67 543.552 1324.51 562.659 L 1324.12 564 C 1317.87 587.46 1289.72 589.711 1269.58 587.093 L 1268 586.872 C 1251.62 584.74 1237.52 576.857 1233.35 559.789 L 1233.06 558.558 C 1220.05 556.64 1206.03 557.365 1192.85 557.126 C 1192.74 569.224 1194.05 581.431 1194.52 593.532 L 1202.87 731.79 C 1203.37 740.245 1213.71 737.402 1221.16 738.819 C 1350.28 763.39 1463.58 870.911 1448.91 1009.64 C 1447.12 1026.5 1441.63 1042.77 1439.87 1059.6 L 1439.73 1061 C 1436.28 1092.35 1463.51 1114.5 1456.14 1131.97 C 1438.01 1174.95 1386.5 1130.04 1370.11 1180.12 C 1359.34 1213 1362.36 1256.26 1378.43 1287.07 C 1400.92 1330.23 1428.52 1328.03 1471.05 1326.69 C 1510.24 1325.45 1510.26 1338.62 1510.34 1376.03 L 1510.47 1492.73 C 1510.34 1528.54 1507.43 1558.9 1495.58 1593.2 C 1461.48 1691.81 1360.65 1753.29 1261.1 1768.61 C 1209.09 1776.62 1089.7 1775.93 1037.38 1768.82 C 944.109 1756.15 857.713 1704.01 816.5 1617.04 C 796.18 1574.16 793.23 1528.74 793.192 1482.28 L 793.055 1366.83 C 792.783 1338.77 795.846 1327.22 828.385 1327.14 L 859.037 1327.12 C 930.145 1327.01 953.654 1238.2 935.314 1180.92 C 912.461 1127.65 879.778 1166.84 855.965 1144.98 C 831.869 1122.85 856.024 1102.65 862.643 1079.87 C 871.929 1047.9 861.529 1025.13 857.243 996.358 C 855.611 985.409 861.494 969.282 852.079 961.367 C 842.891 953.643 834.67 943.672 826.355 934.935 L 528.931 624.469 C 509.275 604.897 491.643 585.947 463.243 579.988 L 440.521 597.332 C 429.442 604.991 387.085 603.716 373.128 600.976 L 371.391 600.605 C 318.876 589.762 304.334 500.996 331.117 461.551 L 285.947 409.438 C 275.925 397.812 263.348 386.112 258.799 371.173 C 265.154 353.179 299.404 324.428 313.02 311.052 C 354.824 269.982 360.64 274.662 385.102 324.229 L 401.886 355.212 C 415.104 378.494 420.754 363.317 445.825 369.38 L 447 369.68 C 467.101 374.476 476.601 395.048 490.086 408.886 L 581.405 500.551 L 918.907 811.295 C 953.77 783.629 1014.32 744.13 1059.8 736.49 L 1067.9 564.227 C 1062.21 564.979 1056.03 565.703 1050.39 564.42 L 1048.88 566 C 1045.08 579.385 1035.6 586.396 1021.89 588.512 L 1020.5 588.717 C 979.067 595.204 950.329 591.136 949.6 545.291 C 948.751 491.921 957.252 473.472 1016.42 478.821 C 1032.04 480.232 1038.89 481.069 1042.78 496.998 C 1050.71 497.101 1060.16 497.83 1067.93 496.537 L 1070.47 446.589 C 1061.19 446.149 1051.96 446.236 1042.74 447.438 C 1024.39 465.035 1039.94 464.682 1002.5 464.926 C 989.868 465.008 978.362 466.414 967.77 458.087 C 939.274 435.686 942.634 354.855 984.721 352.246 C 1005.05 350.986 1046.67 345.718 1047.36 375.031 L 1047.39 376.614 C 1053.77 377.46 1061.44 376.456 1068.03 376.644 C 1067.01 358.952 1073.77 344.46 1090.72 336.948 L 1092.06 336.37 C 1072.32 319.342 1059.07 290.662 1063.52 264.193 L 1063.74 263 C 1069.45 229.936 1096.06 206.303 1129.48 203.344 z"/>
<path transform="translate(0,0)" fill="rgb(249,216,53)" d="M 1058.48 797.5 L 1055.28 932.261 C 1051.85 925.998 1040.81 919.691 1035.17 914.35 L 1012.05 892.323 L 966.7 847.567 C 996.131 827.889 1025.82 811.395 1058.48 797.5 z"/>
<path transform="translate(0,0)" fill="rgb(240,138,104)" d="M 735.675 753.737 L 563.666 579.414 C 555.125 570.449 545.24 561.286 538.785 550.667 C 540.166 548.737 544.744 547.186 547.01 546.098 C 563.337 556.983 577.407 571.579 591.337 585.304 L 754.691 741.523 L 1045.58 1005.79 L 1046.22 1073.14 C 1042.63 1066.01 1028 1052.34 1022.07 1046.05 L 740.852 759.182 C 739.48 757.759 736.519 755.438 735.675 753.737 z"/>
<path transform="translate(0,0)" fill="url(#Gradient1)" d="M 1210.28 932.556 C 1206.73 907.996 1208.46 881.556 1208.36 856.713 L 1206.67 796.017 C 1320.45 820.253 1398.08 894.991 1386.11 1015.23 L 1379.73 1059.52 C 1379.9 1070.61 1380.07 1081.38 1381.85 1092.35 L 1380.43 1092.83 C 1352.09 1102.52 1329.36 1124.99 1316.62 1151.72 C 1283.05 1222.1 1312.87 1342.17 1387.98 1377.14 C 1408.67 1386.78 1428.32 1387.04 1450.76 1387.87 L 1451.17 1416.41 L 1451.38 1485.3 C 1451.39 1500.43 1452.13 1516.13 1450.15 1531.15 C 1436.23 1637 1339.89 1695.97 1241.39 1709.25 C 1227.98 1711.06 1214.07 1711.09 1200.53 1711.74 C 1208.24 1642.57 1226.74 1574.35 1242.6 1506.67 C 1246.77 1488.86 1261.35 1457.89 1254.79 1440.66 L 1254.52 1440.6 C 1244.31 1425.39 1235.13 1425.41 1217.46 1425.21 L 1108.32 1425.5 C 1047.11 1425.53 1041.72 1423.58 1058.11 1492.92 L 1097.92 1675.1 C 1100.13 1686.33 1100.79 1697.83 1103.12 1708.95 L 1086.96 1710.07 C 1022.61 1709.86 952.475 1686.42 906.641 1640.04 C 857.506 1590.32 853.764 1532.65 853.772 1468.07 L 854.008 1391.12 L 854.818 1388.21 C 855.597 1384.41 871.889 1386.05 875.779 1385.88 C 1009.38 1379.93 1052.71 1149.84 923.559 1090.05 C 927.053 1070.21 926.457 1051.55 925.766 1031.55 C 933.527 1041.53 951.301 1058 960.84 1067.46 L 1029.97 1135.22 C 1049.33 1154.69 1068.39 1175.96 1089.47 1193.53 C 1109.96 1210.62 1140.49 1195.28 1144.72 1170.26 C 1150.76 1134.46 1169.59 1185.72 1197 1184.03 C 1213.73 1183 1234.28 1151.35 1233.01 1136.51 C 1232.06 1125.42 1219.87 1115.91 1212.02 1109.05 C 1209.94 1101.41 1210.47 1093.04 1210.44 1085.18 L 1210.28 932.556 z"/>
<path transform="translate(0,0)" fill="rgb(0,0,0)" d="M 1045.06 1304.15 C 1057.83 1302.8 1069.49 1307.23 1082.39 1307.48 L 1234.53 1306.61 C 1243.56 1305.9 1255.27 1302.15 1263.69 1306.64 C 1290.48 1320.92 1275.8 1348.45 1251.69 1352.83 C 1244.91 1352.52 1239.29 1350.93 1235.52 1344.66 L 1233.92 1342 C 1230.83 1338.63 1225.58 1340.27 1221.55 1340.26 L 1075.31 1340.18 C 1071.23 1342.59 1070.18 1345.41 1066.91 1348.33 C 1045.12 1367.74 1009.31 1325.2 1038.31 1307.34 L 1045.06 1304.15 z"/>
</svg>