<svg version="1.1" xmlns="http://www.w3.org/2000/svg" style="display: block;" viewBox="0 0 2048 2048" width="640" height="640">
<path transform="translate(0,0)" fill="rgb(0,0,0)" d="M 1715.86 1686.41 L 400.799 1685.97 C 291.855 1685.81 307.329 1632.98 307.261 1551.41 L 307.283 488.567 C 307.306 431.988 300.854 370.474 376.799 366.429 L 1675.06 366.233 C 1722.91 366.265 1777.72 362.283 1780.52 427.728 L 1780.8 1580.38 C 1780.78 1632.53 1785.41 1684.4 1715.86 1686.41 z M 713.132 493.605 L 496.581 493.636 C 436.528 493.679 435.071 511.213 435.059 570.492 L 435.205 1506 C 436.211 1549.19 476.675 1546.1 505.463 1546.11 L 1375.5 1546.07 L 1592.67 1546.07 C 1651.49 1546.02 1650.73 1525.49 1650.75 1469.82 L 1650.46 539.12 C 1649.94 518.757 1638.87 500.784 1619 494.825 L 1617.87 494.474 C 1611.5 492.653 1603.09 493.505 1596.41 493.504 L 713.132 493.605 z"/>
<path transform="translate(0,0)" fill="rgb(0,0,0)" d="M 1189.03 1222.08 L 850.065 1402.3 C 821.035 1417.43 792.883 1435.38 763.273 1449.17 C 715.874 1471.26 665.574 1449.62 660.464 1394.79 C 659.225 1381.48 660.041 1367.53 660.031 1354.16 L 660.028 690.951 C 660.061 638.765 661.458 591.886 727.301 586.425 L 734.5 586.841 C 743.01 587.653 750.894 590.764 758.5 594.486 L 877.171 659.659 L 1464 970.116 C 1483.68 981.228 1495.31 1006.99 1492.39 1029.1 L 1492.12 1031 C 1487.28 1067.53 1458.56 1079.25 1429.72 1093.96 L 1189.03 1222.08 z"/>
</svg>