<svg version="1.1" xmlns="http://www.w3.org/2000/svg" style="display: block;" viewBox="0 0 2048 2048" width="640" height="640">
<path transform="translate(0,0)" fill="rgb(0,0,0)" d="M 387.033 1430.51 L 1727.32 1430.83 C 1730.8 1430.95 1734.86 1431 1737.64 1433.35 L 1809.46 1502.5 C 1821.86 1515.83 1814.92 1541.26 1796 1543.88 C 1781.62 1545.87 1765.15 1544.29 1750.48 1544.3 L 1650.97 1544.34 L 287.979 1544.29 C 264.965 1544.27 224.516 1552.22 224.606 1517.16 C 224.648 1500.93 239.112 1493.46 249.547 1483.74 L 289.951 1444.81 C 308.169 1428.01 311.701 1430.85 336.332 1430.67 L 387.033 1430.51 z"/>
<path transform="translate(0,0)" fill="rgb(0,0,0)" d="M 935.441 222.259 C 968.149 222.434 972.188 281.675 980.07 308.5 L 1016.48 427.8 L 1078.58 617.61 C 1080.3 615.262 1081.28 611.985 1082.52 609.321 C 1109.99 550.303 1180.7 526.211 1235.42 563.922 C 1312.43 616.994 1272.4 737.776 1187.95 751.095 L 1186.11 751.378 C 1168.34 754.285 1149.18 751.368 1132.04 746.387 C 1133.13 750.715 1137.2 755.519 1139.64 759.317 C 1157 786.354 1171.31 810.606 1165.3 843.709 L 1164.01 851 C 1156.37 893.842 1108.58 904.634 1100.03 937.274 C 1088.12 982.719 1102.79 1021.28 1116.82 1064.19 C 1125.55 1090.9 1123.73 1092.85 1143.5 1112.15 L 1256.92 1243.74 C 1262.01 1249.52 1268.14 1255.58 1271.38 1262.63 L 1272.5 1265.07 C 1275.09 1269.33 1280.1 1268.01 1284.55 1268.04 L 1526.6 1267.98 C 1548.46 1267.98 1570.77 1267.07 1592.56 1268.78 C 1615.01 1270.55 1613.21 1269.66 1625.54 1288.66 L 1648.27 1324.89 C 1657.13 1339.08 1668.16 1352.14 1672.17 1368.64 C 1660.4 1414.77 1630.17 1403.4 1593.12 1403.39 L 1207.83 1403.14 C 1203.66 1402.96 1200.19 1402.21 1196.9 1399.52 L 1169.65 1379.01 L 1088.23 1310.3 C 1070.52 1295.29 1050.42 1280.59 1034.86 1263.42 L 1033.93 1262.38 C 987.754 1277.37 939.498 1287 892.348 1298.43 L 640.049 1357.3 C 637.61 1357.66 631.788 1357.69 629.807 1358.68 C 628.909 1359.13 623.351 1393.66 614.278 1398.15 L 610.743 1399.72 C 591.369 1407.94 531.435 1403.27 508.625 1403.29 L 448.991 1403.31 C 437.182 1403.29 421.403 1405.2 410.508 1400.66 L 409 1400 C 392.276 1392.93 385.726 1381.12 388.232 1362.71 C 394.38 1317.54 453.021 1335.48 472.871 1323.88 C 482.231 1318.4 491.06 1309.17 499.488 1302.25 L 587.594 1227.45 C 616.97 1202.16 615.177 1202.96 651.058 1192.55 L 906.826 1115.65 C 933.725 1107.33 937.376 1109.48 950.298 1083.21 C 973.327 1036.37 977.537 998.15 977.074 946.725 C 976.668 901.622 915.969 889.907 925.445 812.031 C 929.196 781.201 942.185 749.584 964.836 727.895 C 963.633 718.521 961.385 709.394 959.732 700.1 L 906.392 408.481 C 902.129 388.859 890.476 380.428 888.459 369.731 C 884.162 346.952 901.918 297.84 907.836 275.312 L 914.963 247 C 918.285 234.466 921.371 225.157 935.441 222.259 z M 951.735 1152.31 C 946.132 1153.71 942.231 1157.12 936.98 1159.03 L 678.078 1236.58 C 631.239 1249.4 640.051 1247.35 605.651 1278.63 C 594.442 1288.82 523.998 1348.59 511.496 1353.33 L 581.84 1352.42 C 590.003 1305.74 603.644 1316.62 646.141 1307.31 L 999.595 1221.01 C 1036.73 1210.53 1040.21 1205.16 1072.4 1232.37 L 1206.41 1343.59 C 1212.57 1348.54 1217.88 1354.67 1226.24 1355.01 L 1470.22 1355.09 C 1484.71 1355.08 1499.65 1355.8 1514.07 1354.58 L 1528.96 1319.35 L 1281.61 1318.78 C 1263 1318.83 1257.59 1319.65 1244.1 1304.95 L 1115.96 1152.9 L 951.735 1152.31 z M 973.524 471.375 C 975.36 508.627 983.527 546.214 989.663 583 C 1002.27 658.543 1009.83 721.954 1035.79 794.315 C 1056.72 796.174 1080.16 795.762 1101.09 793.011 C 1075.38 748.804 1057.28 698.946 1039.89 651 L 985.743 502.026 C 981.948 491.638 978.954 481.1 973.524 471.375 z M 1581.48 1316.5 C 1576.74 1325.46 1570.13 1349.4 1564.84 1355.34 L 1583.87 1355.23 C 1586.15 1355.22 1589.57 1355.66 1591.75 1355.54 L 1609.91 1355.89 L 1591.8 1330 C 1589.03 1325.92 1585.73 1319 1581.48 1316.5 z"/>
</svg>